<svg xmlns="http://www.w3.org/2000/svg" xmlns:xlink="http://www.w3.org/1999/xlink" width="938" height="752.305" viewBox="0 0 938 752.305">
  <defs>
    <linearGradient id="linear-gradient" x1="0.447" y1="0.262" x2="0.746" y2="1.056" gradientUnits="objectBoundingBox">
      <stop offset="0" stop-color="#f5ac2d"/>
      <stop offset="1" stop-color="#eb6618"/>
    </linearGradient>
    <linearGradient id="linear-gradient-2" x1="0.351" y1="-0.454" x2="0.536" y2="0.611" gradientUnits="objectBoundingBox">
      <stop offset="0" stop-color="#3e62ac"/>
      <stop offset="1" stop-color="#1b2f59"/>
    </linearGradient>
    <linearGradient id="linear-gradient-3" x1="0.183" y1="-0.147" x2="0.603" y2="0.55" xlink:href="#linear-gradient-2"/>
    <linearGradient id="linear-gradient-4" x1="0.5" y1="1.443" x2="0.5" y2="0.15" gradientUnits="objectBoundingBox">
      <stop offset="0" stop-color="#fff"/>
      <stop offset="1" stop-color="#d1d4eb"/>
    </linearGradient>
    <linearGradient id="linear-gradient-5" x1="-0.147" y1="-0.03" x2="0.818" y2="0.761" gradientUnits="objectBoundingBox">
      <stop offset="0" stop-color="#0a1432"/>
      <stop offset="1" stop-color="#24509f"/>
    </linearGradient>
    <linearGradient id="linear-gradient-6" x1="0.204" y1="0.558" x2="0.948" y2="0.412" xlink:href="#linear-gradient-5"/>
    <linearGradient id="linear-gradient-7" x1="0.505" y1="0.363" x2="0.46" y2="1.215" xlink:href="#linear-gradient-2"/>
    <linearGradient id="linear-gradient-8" x1="0.798" y1="0.904" x2="0.497" y2="0.186" xlink:href="#linear-gradient-2"/>
    <linearGradient id="linear-gradient-9" x1="0.913" y1="0.499" x2="-0.124" y2="0.501" xlink:href="#linear-gradient-2"/>
    <linearGradient id="linear-gradient-10" x1="0.653" y1="0.263" x2="0.201" y2="0.8" xlink:href="#linear-gradient-2"/>
    <linearGradient id="linear-gradient-11" x1="0.371" y1="-0.444" x2="0.596" y2="0.599" gradientUnits="objectBoundingBox">
      <stop offset="0" stop-color="#ea6667"/>
      <stop offset="1" stop-color="#b21555"/>
    </linearGradient>
    <linearGradient id="linear-gradient-12" x1="0.5" y1="0.01" x2="0.5" y2="0.622" gradientUnits="objectBoundingBox">
      <stop offset="0" stop-color="#3e62ac"/>
      <stop offset="1" stop-color="#0a1432"/>
    </linearGradient>
    <linearGradient id="linear-gradient-13" x1="0.505" y1="0.526" x2="-0.023" y2="0.657" xlink:href="#linear-gradient-11"/>
    <linearGradient id="linear-gradient-14" x1="0.489" y1="0.244" x2="0.206" y2="0.768" xlink:href="#linear-gradient-11"/>
    <linearGradient id="linear-gradient-15" x1="0.727" y1="0.148" x2="0.255" y2="0.77" xlink:href="#linear-gradient-11"/>
    <linearGradient id="linear-gradient-16" x1="0.5" y1="-0.008" x2="0.5" y2="2.13" xlink:href="#linear-gradient-12"/>
    <linearGradient id="linear-gradient-17" x1="0.5" y1="-0.601" x2="0.5" y2="0.91" xlink:href="#linear-gradient-12"/>
    <linearGradient id="linear-gradient-18" x1="0.721" y1="0.054" x2="-0.014" y2="1.704" xlink:href="#linear-gradient-11"/>
  </defs>
  <g id="Group_10913" data-name="Group 10913" transform="translate(-116 -231.049)">
    <path id="Path_4698" data-name="Path 4698" d="M1289.9,773.613c-1.709-38.506-26.206-58.134-47.446-90.3-53.566-81.115-10.714-194.37,61.218-205.081,73.228-10.907,30.932-118.014,151.626-134.022C1630.274,321,1734.341,428.12,1761.379,547.4c18.636,82.219,38.72,128.114,100.195,162.22,232.2,128.822,93.241,360.257-11.133,380.1-130.751,24.86-160.628-85.88-287.861-119.278-83.988-22.047-160.955,18.964-223.7-36.133S1291.613,812.239,1289.9,773.613Z" transform="translate(-1102.431 -109.972)" fill="#d4f1ff"/>
    <g id="Group_10839" data-name="Group 10839" transform="translate(-731.826 623.862)">
      <path id="Path_4563" data-name="Path 4563" d="M1100.667-86.918q-.514-7.049-.483-13.686.025-6.745.588-13.007c1.392-15.62,5.187-29.095,10.84-40.605a92.06,92.06,0,0,1,24.213-30.695,104.769,104.769,0,0,1,30.512-17.292,137.387,137.387,0,0,1,37.562-7.9c4.363-.32,8.761-.456,13.168-.415,4.462.04,8.917.262,13.335.656v0a1.823,1.823,0,0,1,1.237.648,1.807,1.807,0,0,1,.42,1.326l-.018.129c-.178,1.722-4.15,38.62-22.13,71.962-18.186,33.726-50.638,63.825-107.837,50.569a1.823,1.823,0,0,1-1-.623,1.828,1.828,0,0,1-.407-1.059ZM1230.05-206.974a192.52,192.52,0,0,0-23.277,11.376c4.811.858,15.722,2.883,20.622,4.45,1.621-7.836,2.386-13.575,2.654-15.826Zm-3.019,17.541-.02-.007c-5.66-1.845-20.413-4.421-22.613-4.8-6.141,3.552-13.054,7.9-20.4,13.112l38.287,10.071c2.042-6.736,3.589-13,4.745-18.378Zm-5.258,20.047-39.617-10.422a264.451,264.451,0,0,0-21.255,17.085c7.856,2.4,45.418,13.911,51.783,17.128a195.973,195.973,0,0,0,9.089-23.791Zm-9.827,25.366c-6.4-3.279-47.867-15.915-52.556-17.34-5.792,5.254-11.618,11.02-17.344,17.324l59.009,18.838a.8.8,0,0,1,.2.1c2.537-3.773,4.862-7.658,6.986-11.6q1.963-3.638,3.7-7.319Zm-11.7,20.4-59.483-18.99c-4.452,4.979-8.837,10.29-13.091,15.941,9.613,3.249,58.862,18.573,59.01,18.619a.868.868,0,0,1,.351.209,108.771,108.771,0,0,0,13.213-15.78Zm-14.569,17.082c-5.218-1.623-51.31-15.979-59.1-18.662q-5.465,7.38-10.581,15.538c11.634,5.745,50.747,15.9,50.864,15.928a.87.87,0,0,1,.534.4,84.806,84.806,0,0,0,18.284-13.206ZM1165.4-92.311c-6.269-1.651-39.729-10.573-50.332-15.866q-3.248,5.294-6.306,10.916c4.464,1.761,24.473,9.441,37.4,10.761a.875.875,0,0,1,.755.633,78.73,78.73,0,0,0,18.484-6.444Zm-22.3,7.171c-13.237-2.066-31.354-9.067-35.163-10.578q-2.306,4.328-4.479,8.851c14.867,3.332,28.016,3.664,39.642,1.727Zm-40.661-3.632q2.014-4.14,4.141-8.113c-1.783-4.951-3.109-13.529-3.755-18.339q-.092.882-.17,1.776-.551,6.186-.583,12.844-.02,5.712.367,11.832Zm.921-30.947a.874.874,0,0,1,.758.769c0,.04,1.392,12.634,3.6,19.957q2.948-5.385,6.086-10.459a170.834,170.834,0,0,1-5.768-30.94,117.01,117.01,0,0,0-4.68,20.673Zm5.676-23.575a.871.871,0,0,1,.585.763,167.618,167.618,0,0,0,5.432,31.082q4.941-7.835,10.237-14.946c-1.027-3.035-6.984-21.122-7.817-34.563q-2.222,3.631-4.162,7.569a98.769,98.769,0,0,0-4.276,10.1Zm9.713-19.686a.871.871,0,0,1,.409.707c.466,12.162,5.708,29,7.408,34.178,4.195-5.553,8.517-10.774,12.9-15.679-7.84-16.612-9.021-30.143-9.2-33.512a89.434,89.434,0,0,0-11.522,14.307Zm12.982-15.749a.862.862,0,0,1,.255.6c0,.043.161,14.427,8.747,32.954,5.744-6.324,11.587-12.109,17.4-17.383-3.518-7.92-6.915-27.642-7.37-30.339a97.048,97.048,0,0,0-13.735,9.446q-2.726,2.254-5.294,4.726Zm20.6-15.047a.852.852,0,0,1,.1.285c.011.063,3.47,21.074,7.072,29.695a265.9,265.9,0,0,1,21.517-17.329,98.728,98.728,0,0,1-2.457-22.934c-3.928,1.028-7.794,2.236-11.57,3.633a109.784,109.784,0,0,0-14.661,6.65Zm27.954-10.721a.9.9,0,0,1,.026.231,97.647,97.647,0,0,0,2.234,22.043c7.476-5.327,14.519-9.769,20.776-13.4a63.071,63.071,0,0,1-.247-12.522,142.079,142.079,0,0,0-22.789,3.646Zm24.541-3.776a.766.766,0,0,1,0,.137,62.26,62.26,0,0,0,.134,11.572,204.467,204.467,0,0,1,23.33-11.582q-5.591-.432-11.231-.486C1212.995-208.668,1208.91-208.551,1204.824-208.273Z" transform="translate(108.113 56.908)" fill="#c3c3c3" fill-rule="evenodd"/>
      <path id="Path_4564" data-name="Path 4564" d="M1077.407-93.812q.514-7.051.485-13.689-.027-6.742-.59-13.005c-1.392-15.62-5.186-29.095-10.84-40.605a92.1,92.1,0,0,0-24.213-30.7,104.8,104.8,0,0,0-30.512-17.291,137.388,137.388,0,0,0-37.562-7.9c-4.363-.32-8.761-.455-13.168-.415-4.462.041-8.916.262-13.335.657v0a1.819,1.819,0,0,0-1.239.646,1.819,1.819,0,0,0-.418,1.326l.016.127c.18,1.722,4.154,38.623,22.132,71.964C986.348-108.973,1018.8-78.876,1076-92.133a1.79,1.79,0,0,0,1-.623,1.811,1.811,0,0,0,.407-1.056ZM948.025-213.869A191.826,191.826,0,0,1,971.3-202.493c-4.811.857-15.724,2.883-20.621,4.447-1.623-7.836-2.387-13.572-2.656-15.823Zm3.019,17.54.02-.007c5.66-1.845,20.415-4.419,22.613-4.8,6.141,3.554,13.055,7.9,20.4,13.114l-38.287,10.071c-2.042-6.736-3.589-13-4.745-18.378Zm5.258,20.046L995.918-186.7a263.73,263.73,0,0,1,21.255,17.085c-7.856,2.394-45.418,13.908-51.783,17.126a195.662,195.662,0,0,1-9.089-23.793Zm9.827,25.369c6.4-3.281,47.867-15.918,52.558-17.342,5.79,5.254,11.616,11.021,17.342,17.325L977.019-132.1a.93.93,0,0,0-.2.1c-2.537-3.772-4.862-7.658-6.986-11.6q-1.962-3.641-3.7-7.319Zm11.7,20.4,59.483-18.988c4.454,4.979,8.836,10.29,13.091,15.941-9.613,3.249-58.862,18.573-59.01,18.62a.833.833,0,0,0-.351.209,108.638,108.638,0,0,1-13.213-15.783ZM992.4-113.434c5.217-1.626,51.31-15.981,59.1-18.663q5.465,7.382,10.58,15.536c-11.633,5.745-50.745,15.9-50.862,15.93a.866.866,0,0,0-.534.4,84.8,84.8,0,0,1-18.284-13.2Zm20.273,14.226c6.269-1.649,39.729-10.572,50.332-15.866q3.248,5.294,6.307,10.918c-4.465,1.763-24.475,9.441-37.4,10.763a.873.873,0,0,0-.755.631,78.763,78.763,0,0,1-18.484-6.446Zm22.306,7.174c13.237-2.068,31.352-9.067,35.163-10.578q2.3,4.328,4.475,8.85c-14.865,3.332-28.014,3.664-39.638,1.728Zm40.66-3.631q-2.012-4.14-4.141-8.115c1.783-4.951,3.109-13.529,3.757-18.339q.089.885.168,1.776.554,6.184.583,12.842.019,5.717-.368,11.835Zm-.921-30.947a.872.872,0,0,0-.758.768c0,.041-1.391,12.634-3.6,19.957q-2.948-5.383-6.086-10.459a170.855,170.855,0,0,0,5.769-30.939,116.954,116.954,0,0,1,4.679,20.673Zm-5.676-23.575a.867.867,0,0,0-.585.761,167.562,167.562,0,0,1-5.432,31.082q-4.941-7.835-10.237-14.944c1.026-3.037,6.984-21.125,7.817-34.565q2.222,3.631,4.164,7.571a98.7,98.7,0,0,1,4.274,10.1Zm-9.711-19.688a.871.871,0,0,0-.41.705c-.465,12.163-5.706,29-7.408,34.18-4.2-5.553-8.517-10.773-12.9-15.678,7.84-16.612,9.021-30.146,9.2-33.514a89.551,89.551,0,0,1,11.524,14.307Zm-12.984-15.75a.874.874,0,0,0-.255.6c0,.043-.161,14.427-8.748,32.952-5.744-6.321-11.586-12.106-17.4-17.381,3.518-7.92,6.915-27.642,7.37-30.339a96.811,96.811,0,0,1,13.735,9.448q2.726,2.252,5.294,4.722Zm-20.6-15.047a.889.889,0,0,0-.1.285c-.011.064-3.47,21.074-7.072,29.7a265.781,265.781,0,0,0-21.517-17.329,98.635,98.635,0,0,0,2.457-22.934q5.895,1.542,11.57,3.633a110.3,110.3,0,0,1,14.661,6.648Zm-27.955-10.72a.877.877,0,0,0-.026.231,97.646,97.646,0,0,1-2.234,22.044c-7.477-5.329-14.521-9.771-20.776-13.4A63.111,63.111,0,0,0,975-215.039a142.245,142.245,0,0,1,22.787,3.646Zm-24.541-3.776a.947.947,0,0,0,0,.137,62.264,62.264,0,0,1-.134,11.572,204.058,204.058,0,0,0-23.33-11.58q5.591-.432,11.231-.486C965.08-215.564,969.164-215.447,973.251-215.169Z" transform="translate(8.257 52.442)" fill="#c3c3c3" fill-rule="evenodd"/>
      <g id="Group_10802" data-name="Group 10802" transform="translate(986.255 -43.33)">
        <path id="Path_4565" data-name="Path 4565" d="M997.027-75.238c-1.644-5.37-5.375-13.877-13.788-23.489-14.284-16.312-23.074-35.47-14.328-43.423,8.428-7.66,28.663,15.473,37.388,63.413l-9.237,3.486Z" transform="translate(-965.424 143.591)" fill="#8897cb" fill-rule="evenodd"/>
        <path id="Path_4566" data-name="Path 4566" d="M970.639-139.111a.736.736,0,0,1-.071-1.038.736.736,0,0,1,1.038-.073,52.353,52.353,0,0,1,4.576,4.653l-1.115-4.075a.491.491,0,0,1,.344-.6.492.492,0,0,1,.6.343l1.656,6.057c1.239,1.476,2.607,3.21,4.045,5.2l-.5-5.063a.491.491,0,0,1,.44-.537.492.492,0,0,1,.537.442l.669,6.782c1.461,2.109,2.973,4.469,4.48,7.083l-.269-4.409a.489.489,0,0,1,.457-.521.492.492,0,0,1,.521.458l.4,6.438c1.527,2.786,3.035,5.834,4.464,9.148l.208-4.233a.486.486,0,0,1,.509-.465.488.488,0,0,1,.466.511l-.306,6.289c1.285,3.165,2.49,6.554,3.566,10.166l.672-2.42a.491.491,0,0,1,.6-.341.494.494,0,0,1,.341.606l-1.1,3.953c.781,2.781,1.485,5.689,2.086,8.728l.768-2.391a.488.488,0,0,1,.616-.318.488.488,0,0,1,.316.616l-1.32,4.113q.408,2.257.738,4.6l-1.414.536q-.324-2.358-.725-4.615c-.97-.733-3.338-2.44-4.683-2.75a.492.492,0,0,1-.371-.588.491.491,0,0,1,.588-.367,15.29,15.29,0,0,1,4.2,2.3q-.336-1.765-.715-3.477a20.788,20.788,0,0,0-5.823-2.531.49.49,0,0,1-.386-.577.489.489,0,0,1,.575-.386,19.844,19.844,0,0,1,5.337,2.186c-.544-2.328-1.149-4.572-1.8-6.736-1.681-.554-7.036-2.256-9.662-2.313a.49.49,0,0,1-.479-.5.489.489,0,0,1,.5-.479c2.465.054,7.111,1.452,9.29,2.15q-1.075-3.445-2.29-6.6a44.783,44.783,0,0,0-11.545-2.6.493.493,0,0,1-.47-.512.489.489,0,0,1,.512-.468,43.983,43.983,0,0,1,11.038,2.379q-.613-1.55-1.251-3.024a47.6,47.6,0,0,0-13.808-3.465.489.489,0,0,1-.448-.529.486.486,0,0,1,.527-.448,48.539,48.539,0,0,1,13.16,3.152,104.835,104.835,0,0,0-4.915-9.627c-2.175-.341-10.656-1.611-15.028-1.392a.493.493,0,0,1-.514-.466.489.489,0,0,1,.465-.514c4.048-.2,11.442.827,14.437,1.28-1.27-2.14-2.539-4.094-3.77-5.866-2.116-.124-9.935-.567-11.84-.564a.491.491,0,0,1-.493-.488.491.491,0,0,1,.489-.493c1.743,0,8.3.359,11.125.521-1.635-2.292-3.183-4.251-4.557-5.876-2.005.01-6.835.046-8.036.135a.488.488,0,0,1-.526-.451.493.493,0,0,1,.452-.527c1.069-.079,4.974-.117,7.268-.132A53.067,53.067,0,0,0,970.639-139.111Z" transform="translate(-963.9 145.657)" fill="#d1d4eb" fill-rule="evenodd"/>
      </g>
      <g id="Group_10803" data-name="Group 10803" transform="translate(953.711 -28.037)">
        <path id="Path_4567" data-name="Path 4567" d="M1043.055-16.3c-5.744-9.062-17.93-24.244-41.751-39.806-37.682-24.62-65.719-56.4-52.167-74.022,13.3-17.3,68.463,19.258,112.046,106.969A102.81,102.81,0,0,1,1043.055-16.3Z" transform="translate(-945.672 134.31)" fill="#d1d4eb" fill-rule="evenodd"/>
        <path id="Path_4568" data-name="Path 4568" d="M1047.589-26.211a23.578,23.578,0,0,0-7.649.745.492.492,0,0,1-.6-.354.491.491,0,0,1,.354-.6,25.559,25.559,0,0,1,7.347-.809q-1.164-2.172-2.338-4.284c-1.7-.1-7.19-.427-9.257-.394a.488.488,0,0,1-.5-.481.491.491,0,0,1,.483-.5c1.9-.031,6.553.231,8.711.359q-2.2-3.94-4.4-7.662a114.237,114.237,0,0,0-12.451.458.494.494,0,0,1-.536-.443.49.49,0,0,1,.443-.535,115.3,115.3,0,0,1,11.961-.47q-2.229-3.749-4.462-7.279a162.578,162.578,0,0,0-17.782.646.492.492,0,0,1-.536-.44.492.492,0,0,1,.443-.535,163.426,163.426,0,0,1,17.241-.666q-2.939-4.627-5.866-8.894c-2.361-.194-12.143-.827-19.591,1.246a.49.49,0,0,1-.6-.339.491.491,0,0,1,.339-.606c6.938-1.931,15.829-1.565,19.151-1.336q-3.6-5.222-7.166-9.926c-3.228.058-16.233.535-22.468,4.6a.492.492,0,0,1-.677-.147.486.486,0,0,1,.145-.677c6.049-3.938,18.077-4.618,22.262-4.735q-3.787-4.965-7.5-9.382a102.036,102.036,0,0,0-21.74,6.737.49.49,0,0,1-.647-.242.49.49,0,0,1,.24-.649,102.914,102.914,0,0,1,21.426-6.706q-2.2-2.6-4.36-5.009a110.362,110.362,0,0,0-24.867,7.838.492.492,0,0,1-.648-.254.489.489,0,0,1,.252-.644,113.933,113.933,0,0,1,24.481-7.8q-5.136-5.677-10.015-10.369c-2.885.83-17.492,5.151-25.262,9.678a.492.492,0,0,1-.671-.178.487.487,0,0,1,.178-.669c7.461-4.348,21.061-8.482,24.933-9.614q-2.84-2.711-5.566-5.113A144.232,144.232,0,0,0,965.6-92.906a.49.49,0,0,1-.664-.2.492.492,0,0,1,.2-.662,144.956,144.956,0,0,1,23.812-9.639c-4.254-3.7-8.271-6.853-11.985-9.52-2.434.475-13.429,2.776-21.789,7.2a.491.491,0,0,1-.662-.2.491.491,0,0,1,.2-.662c7.687-4.066,17.538-6.363,21.151-7.115q-2.308-1.624-4.44-3a75.784,75.784,0,0,0-18.729,4,.492.492,0,0,1-.623-.306.489.489,0,0,1,.3-.623,79.841,79.841,0,0,1,17.686-3.943c-11.478-7.237-18.706-9.245-18.764-9.262a.738.738,0,0,1-.5-.913.738.738,0,0,1,.913-.5,56.372,56.372,0,0,1,8.691,3.575,44.454,44.454,0,0,0-4.068-5.1.49.49,0,0,1-.137-.679.489.489,0,0,1,.679-.137c.863.577,4.271,5.258,5.436,6.876,2.22,1.148,4.735,2.556,7.52,4.277l-4.465-9.809a.492.492,0,0,1,.241-.649.492.492,0,0,1,.651.242l5.081,11.16c1.906,1.218,3.928,2.575,6.045,4.086l-4.777-11.606a.489.489,0,0,1,.267-.638.488.488,0,0,1,.639.264l5.378,13.073c3.168,2.318,6.538,4.968,10.077,8.008L984.919-117.3a.492.492,0,0,1,.306-.623.489.489,0,0,1,.623.3l4.6,13.588c1.613,1.419,3.257,2.907,4.933,4.483l-3.419-10.8a.492.492,0,0,1,.316-.618.491.491,0,0,1,.618.32l3.956,12.5q4.654,4.469,9.563,9.809l-2.483-10.509a.493.493,0,0,1,.364-.592.49.49,0,0,1,.59.364l2.89,12.231q1.94,2.158,3.911,4.464l-1.31-8a.49.49,0,0,1,.407-.562.487.487,0,0,1,.56.4l1.572,9.608q3.66,4.345,7.4,9.214l-1.163-8.911a.488.488,0,0,1,.422-.549.49.49,0,0,1,.549.423l1.384,10.591q3.27,4.325,6.579,9.079l-.679-7.9a.492.492,0,0,1,.447-.531.491.491,0,0,1,.532.445l.824,9.614q2.879,4.2,5.778,8.734l.227-7.1a.489.489,0,0,1,.5-.476.491.491,0,0,1,.476.5l-.272,8.537q2.091,3.314,4.183,6.813l1-6.019a.489.489,0,0,1,.563-.4.49.49,0,0,1,.4.564l-1.188,7.167q1.923,3.25,3.844,6.65l.865-3.882a.492.492,0,0,1,.585-.372.493.493,0,0,1,.372.587l-1.1,4.951q1.429,2.563,2.855,5.22l1.748-3.147a.489.489,0,0,1,.666-.189.492.492,0,0,1,.189.666l-2.053,3.7q1.164,2.172,2.322,4.408-.692.287-1.373.554Q1048.7-24.13,1047.589-26.211Z" transform="translate(-942.364 136.664)" fill="#fff" fill-rule="evenodd"/>
      </g>
      <g id="Group_10804" data-name="Group 10804" transform="translate(1207.514 -239.419)">
        <path id="Path_4569" data-name="Path 4569" d="M1109.557-190.608c.526-5.591,2.46-14.676,8.761-25.788,10.7-18.861,15.437-39.4,5.266-45.422-9.8-5.8-24.949,20.942-23.816,69.656l9.751,1.549Z" transform="translate(-1099.708 262.6)" fill="#8897cb" fill-rule="evenodd"/>
        <path id="Path_4570" data-name="Path 4570" d="M1120.809-258.228a.735.735,0,0,0-.138-1.031.734.734,0,0,0-1.031.14,52.126,52.126,0,0,0-3.542,5.48l.269-4.216a.491.491,0,0,0-.458-.519.488.488,0,0,0-.519.458l-.4,6.266c-.916,1.7-1.906,3.669-2.915,5.909l-.532-5.057a.489.489,0,0,0-.539-.438.492.492,0,0,0-.438.539l.715,6.779c-1.005,2.361-2.01,4.976-2.958,7.841l-.626-4.373a.491.491,0,0,0-.554-.417.492.492,0,0,0-.418.554l.915,6.385c-.934,3.04-1.8,6.329-2.524,9.861l-1.058-4.1a.49.49,0,0,0-.595-.354.489.489,0,0,0-.353.595l1.57,6.1c-.619,3.36-1.115,6.922-1.438,10.677l-1.147-2.233a.493.493,0,0,0-.662-.213.491.491,0,0,0-.213.661l1.875,3.65c-.2,2.882-.3,5.871-.279,8.968l-1.234-2.188a.492.492,0,0,0-.669-.185.492.492,0,0,0-.187.667l2.125,3.762q.057,2.294.208,4.658l1.491.237q-.16-2.37-.221-4.666c.8-.913,2.776-3.061,4.03-3.638a.492.492,0,0,0,.244-.651.492.492,0,0,0-.651-.242,15.336,15.336,0,0,0-3.651,3.106q-.025-1.8,0-3.551a20.824,20.824,0,0,1,5.193-3.655.5.5,0,0,0,.262-.644.491.491,0,0,0-.644-.26,19.852,19.852,0,0,0-4.785,3.22c.063-2.391.2-4.709.4-6.96,1.534-.882,6.434-3.63,8.995-4.216a.491.491,0,0,0,.369-.588.489.489,0,0,0-.588-.367c-2.4.55-6.67,2.857-8.66,3.981.236-2.392.544-4.7.906-6.928a44.858,44.858,0,0,1,10.782-4.874.493.493,0,0,0,.357-.6.489.489,0,0,0-.595-.356,44,44,0,0,0-10.331,4.559q.286-1.639.614-3.213a47.6,47.6,0,0,1,12.823-6.182.491.491,0,0,0,.334-.608.492.492,0,0,0-.61-.333,48.492,48.492,0,0,0-12.25,5.745,104.827,104.827,0,0,1,2.868-10.423c2.063-.774,10.112-3.73,14.439-4.4a.492.492,0,0,0,.41-.559.493.493,0,0,0-.56-.41c-4.007.62-11.038,3.121-13.882,4.169.812-2.351,1.662-4.523,2.509-6.507,2.048-.547,9.617-2.562,11.481-2.943a.489.489,0,0,0,.386-.577.491.491,0,0,0-.579-.382c-1.71.348-8.057,2.025-10.792,2.755,1.137-2.575,2.259-4.806,3.279-6.675,1.964-.394,6.7-1.336,7.9-1.488a.494.494,0,0,0,.425-.55.49.49,0,0,0-.549-.423c-1.064.137-4.9.89-7.146,1.336A53.156,53.156,0,0,1,1120.809-258.228Z" transform="translate(-1099.09 264.666)" fill="#d1d4eb" fill-rule="evenodd"/>
      </g>
      <g id="Group_10805" data-name="Group 10805" transform="translate(1193.889 -243.404)">
        <path id="Path_4571" data-name="Path 4571" d="M1110.577-132.058c3.8-10.038,12.666-27.366,32.853-47.419,31.937-31.719,52.981-68.5,36.148-83.03-16.516-14.257-63.166,32.685-88.139,127.387A102.756,102.756,0,0,0,1110.577-132.058Z" transform="translate(-1091.439 265.019)" fill="#d1d4eb" fill-rule="evenodd"/>
        <path id="Path_4572" data-name="Path 4572" d="M1099.146-140.412a23.6,23.6,0,0,1,7.644-.816.487.487,0,0,0,.511-.466.49.49,0,0,0-.468-.511,25.529,25.529,0,0,0-7.36.69q.707-2.365,1.427-4.668c1.646-.447,6.955-1.87,8.986-2.254a.493.493,0,0,0,.392-.573.492.492,0,0,0-.575-.392c-1.865.353-6.372,1.547-8.459,2.109q1.359-4.3,2.766-8.392a113.945,113.945,0,0,1,12.285-2.068.49.49,0,0,0,.437-.54.492.492,0,0,0-.541-.435,115.725,115.725,0,0,0-11.811,1.954q1.429-4.12,2.9-8.029a161.659,161.659,0,0,1,17.544-2.956.493.493,0,0,0,.437-.54.492.492,0,0,0-.541-.437,163.713,163.713,0,0,0-17.022,2.831q1.945-5.123,3.95-9.9c2.272-.666,11.727-3.262,19.439-2.735a.491.491,0,0,0,.524-.455.492.492,0,0,0-.455-.526c-7.186-.491-15.82,1.664-19.027,2.559q2.474-5.843,5.015-11.168c3.173-.6,16.006-2.753,22.932-.038a.489.489,0,0,0,.634-.278.493.493,0,0,0-.28-.636c-6.718-2.635-18.639-.873-22.76-.142q2.706-5.628,5.447-10.7a102.182,102.182,0,0,1,22.651,2.208.488.488,0,0,0,.586-.366.489.489,0,0,0-.367-.588,102.9,102.9,0,0,0-22.338-2.241q1.626-2.988,3.259-5.787a110.3,110.3,0,0,1,25.938,2.654.487.487,0,0,0,.58-.377.49.49,0,0,0-.377-.582,113.807,113.807,0,0,0-25.551-2.692c2.588-4.4,5.172-8.456,7.716-12.18,2.992.232,18.171,1.513,26.7,4.378a.488.488,0,0,0,.619-.306.489.489,0,0,0-.308-.621c-8.186-2.752-22.339-4.055-26.363-4.381q2.237-3.23,4.421-6.133a144.364,144.364,0,0,1,25.694,4.65.49.49,0,0,0,.608-.333.489.489,0,0,0-.333-.606,145.144,145.144,0,0,0-25.267-4.633c3.417-4.483,6.718-8.382,9.817-11.745,2.478-.026,13.712.008,22.792,2.653a.488.488,0,0,0,.608-.331.491.491,0,0,0-.333-.61c-8.351-2.43-18.461-2.689-22.151-2.7q1.932-2.056,3.742-3.837a75.942,75.942,0,0,1,19.153.135.491.491,0,0,0,.549-.425.492.492,0,0,0-.425-.549,80.053,80.053,0,0,0-18.116-.292c9.781-9.4,16.452-12.83,16.508-12.86a.735.735,0,0,0,.3-.994.737.737,0,0,0-1-.3,56.672,56.672,0,0,0-7.79,5.258,43.811,43.811,0,0,1,2.958-5.815.49.49,0,0,0-.005-.69.488.488,0,0,0-.692,0c-.73.74-3.122,6.011-3.938,7.831-1.939,1.572-4.121,3.458-6.5,5.706l2.393-10.507a.489.489,0,0,0-.367-.587.493.493,0,0,0-.588.369l-2.722,11.956c-1.621,1.577-3.326,3.317-5.094,5.223l2.331-12.331a.489.489,0,0,0-.387-.573.489.489,0,0,0-.573.389l-2.629,13.888c-2.633,2.911-5.4,6.187-8.251,9.876l1.555-12.564a.491.491,0,0,0-.425-.549.492.492,0,0,0-.549.425l-1.763,14.239q-1.942,2.57-3.927,5.386l1.168-11.264a.49.49,0,0,0-.437-.54.493.493,0,0,0-.54.437l-1.351,13.036q-3.655,5.319-7.385,11.539l.31-10.794a.49.49,0,0,0-.476-.5.491.491,0,0,0-.506.476l-.359,12.562c-.977,1.667-1.954,3.393-2.931,5.161l-.333-8.1a.49.49,0,0,0-.51-.468.489.489,0,0,0-.468.509l.4,9.726q-2.7,4.995-5.385,10.519l-.657-8.96a.491.491,0,0,0-.527-.453.488.488,0,0,0-.452.524l.783,10.654q-2.328,4.9-4.609,10.217l-.933-7.874a.491.491,0,0,0-.544-.43.492.492,0,0,0-.432.545l1.135,9.581q-1.975,4.693-3.9,9.72l-1.656-6.905a.492.492,0,0,0-.59-.366.491.491,0,0,0-.364.592l1.99,8.306q-1.381,3.668-2.724,7.517L1101-163.515a.492.492,0,0,0-.635-.28.493.493,0,0,0-.282.633l2.61,6.782q-1.226,3.569-2.42,7.289l-1.631-3.628a.489.489,0,0,0-.648-.247.49.49,0,0,0-.247.649l2.078,4.628c-.588,1.864-1.168,3.765-1.743,5.688l-2.345-2.729a.494.494,0,0,0-.692-.053.49.49,0,0,0-.051.69l2.755,3.208q-.7,2.365-1.381,4.786c.49.091.976.181,1.453.265Q1098.476-138.15,1099.146-140.412Z" transform="translate(-1089.214 267.556)" fill="#fff" fill-rule="evenodd"/>
      </g>
      <g id="Group_10806" data-name="Group 10806" transform="translate(1155.539 -39.929)">
        <path id="Path_4573" data-name="Path 4573" d="M1068.94,54.142a261.95,261.95,0,0,1,.161-42.367c4.587-51.46,25.61-88.176,55.4-112.764,29.75-24.554,68.232-36.969,107.8-39.866a260.649,260.649,0,0,1,42.062.377,1.4,1.4,0,0,1,1.269,1.513c0,.041-.008.081-.015.122-.408,3.966-24.809,236.2-205.6,194.3A1.391,1.391,0,0,1,1068.94,54.142Z" transform="translate(-1068.164 141.527)" fill="#d1d4eb" fill-rule="evenodd"/>
        <path id="Path_4574" data-name="Path 4574" d="M1263.671-136.46a1.3,1.3,0,0,1,1.672.751,1.3,1.3,0,0,1-.751,1.672c-.122.046-14.254,5.292-35.364,17.205,7.232,1.29,23.73,4.352,30.894,6.688a1.3,1.3,0,0,1,.834,1.635,1.3,1.3,0,0,1-1.635.834c-8.415-2.745-30.354-6.573-33.624-7.136-9.128,5.282-19.41,11.75-30.332,19.5l56.962,14.982a1.3,1.3,0,0,1,.921,1.583,1.3,1.3,0,0,1-1.585.921l-59.038-15.528a392.911,392.911,0,0,0-31.6,25.407c11.72,3.571,67.891,20.789,77.092,25.511a1.293,1.293,0,0,1,.56,1.74,1.291,1.291,0,0,1-1.738.562c-9.487-4.867-71.185-23.671-78.159-25.79-8.611,7.812-17.274,16.385-25.788,25.76l87.739,28.009a1.3,1.3,0,0,1,.844,1.633,1.3,1.3,0,0,1-1.633.844l-88.858-28.366c-6.622,7.4-13.142,15.3-19.466,23.7,14.294,4.833,87.522,27.617,87.743,27.686a1.294,1.294,0,1,1-.77,2.472c-.224-.071-76.339-23.751-88.6-27.974q-8.127,10.974-15.734,23.1c17.3,8.543,75.457,23.641,75.629,23.684a1.3,1.3,0,0,1-.649,2.516c-.175-.046-58.955-15.3-76.352-23.987q-4.832,7.872-9.377,16.231c6.637,2.62,36.392,14.038,55.611,16a1.3,1.3,0,0,1-.259,2.585c-19.818-2.025-50.495-13.878-56.586-16.292q-3.517,6.6-6.825,13.508a1.3,1.3,0,0,1-2.345-1.119q3.46-7.232,7.151-14.124c-3.826-10.621-6.232-32.458-6.238-32.522a1.3,1.3,0,0,1,1.145-1.432,1.3,1.3,0,0,1,1.432,1.145c.007.059,2.069,18.787,5.358,29.675q4.387-8.005,9.051-15.554a251.347,251.347,0,0,1-8.807-49,1.3,1.3,0,0,1,1.2-1.384,1.3,1.3,0,0,1,1.386,1.2,248.882,248.882,0,0,0,8.075,46.214q7.348-11.651,15.223-22.222c-1.575-4.655-10.947-33.107-11.719-53.245a1.3,1.3,0,0,1,1.247-1.351,1.3,1.3,0,0,1,1.351,1.247c.69,18.085,8.487,43.121,11.015,50.818,6.236-8.253,12.664-16.017,19.186-23.311-13.468-28.538-13.72-50.969-13.722-51.035a1.3,1.3,0,0,1,1.27-1.323,1.3,1.3,0,0,1,1.325,1.27c0,.064.242,21.453,13.01,49,8.538-9.4,17.225-18,25.864-25.846-5.61-12.634-11.018-45.476-11.035-45.573a1.3,1.3,0,0,1,1.071-1.488,1.294,1.294,0,0,1,1.486,1.071c.016.094,5.16,31.336,10.514,44.155a395.757,395.757,0,0,1,32-25.768c-4.126-16.45-3.65-34.415-3.65-34.468a1.3,1.3,0,0,1,1.33-1.267,1.294,1.294,0,0,1,1.264,1.326c0,.051-.447,16.963,3.325,32.779,11.117-7.924,21.588-14.528,30.891-19.924a94.031,94.031,0,0,1-.348-18.846,1.3,1.3,0,0,1,1.409-1.173,1.3,1.3,0,0,1,1.172,1.41,92.742,92.742,0,0,0,.2,17.205C1248.636-130.881,1263.546-136.41,1263.671-136.46Z" transform="translate(-1065.05 144.531)" fill="#fff" fill-rule="evenodd"/>
      </g>
      <g id="Group_10807" data-name="Group 10807" transform="translate(1356.21 -255.018)">
        <path id="Path_4575" data-name="Path 4575" d="M1208.311-189.854h29.622a3.312,3.312,0,0,1,.425.026c2.424-.652,2.519-2.935,2.656-6.278a44.73,44.73,0,0,1,.474-5.5c.826-5.065,6.212-14.121,8.83-18.3l.04-.059,0,0c.751-1.2,1.264-1.977,1.366-2.13a33.056,33.056,0,0,0,3.053-6.872,33.187,33.187,0,0,0,1.509-9.929,33.068,33.068,0,0,0-9.713-23.453,33.064,33.064,0,0,0-23.455-9.715,33.061,33.061,0,0,0-23.451,9.715,33.063,33.063,0,0,0-9.715,23.453,33.238,33.238,0,0,0,1.509,9.929,33,33,0,0,0,3.055,6.872c.1.153.616.934,1.366,2.13l0,0,.038.059c2.618,4.177,8.006,13.233,8.83,18.3a44.757,44.757,0,0,1,.476,5.5c.137,3.343.232,5.625,2.655,6.278A3.313,3.313,0,0,1,1208.311-189.854Z" transform="translate(-1189.954 272.068)" fill-rule="evenodd" fill="url(#linear-gradient)"/>
        <path id="Path_4576" data-name="Path 4576" d="M1210.811-209.692a.725.725,0,0,1-.725.725.726.726,0,0,1-.727-.725v-21.741c0-.278-.007-.549-.015-.811-.481-.11-.939-.239-1.372-.376a11.707,11.707,0,0,1-4.141-2.154,4.125,4.125,0,0,1-1.638-3.045,2.957,2.957,0,0,1,.14-.895,2.814,2.814,0,0,1,1.845-1.847,3.511,3.511,0,0,1,2.028-.035,4.727,4.727,0,0,1,2.03,1.185,9.446,9.446,0,0,1,2.473,5.968,25.172,25.172,0,0,0,4.482.382,25.218,25.218,0,0,0,4.487-.382,9.435,9.435,0,0,1,2.472-5.968,4.722,4.722,0,0,1,2.028-1.185,3.522,3.522,0,0,1,2.032.035,2.828,2.828,0,0,1,1.845,1.847,2.954,2.954,0,0,1,.138.895,4.131,4.131,0,0,1-1.638,3.045,11.722,11.722,0,0,1-4.141,2.154c-.435.137-.893.265-1.371.376-.011.262-.018.532-.018.811v21.741a.725.725,0,0,1-.725.725.726.726,0,0,1-.727-.725v-21.741c0-.175,0-.349.006-.519a26.959,26.959,0,0,1-4.389.344,26.967,26.967,0,0,1-4.388-.344c0,.17.006.344.006.519v21.741Zm12.341-28.675a7.683,7.683,0,0,0-1.974,4.6c.275-.072.544-.15.8-.231a10.329,10.329,0,0,0,3.631-1.865,2.753,2.753,0,0,0,1.132-1.951,1.519,1.519,0,0,0-.071-.458,1.4,1.4,0,0,0-.916-.911,2.1,2.1,0,0,0-1.2-.008,3.318,3.318,0,0,0-1.4.829Zm-13.944,4.6a7.672,7.672,0,0,0-1.974-4.6,3.294,3.294,0,0,0-1.4-.829,2.108,2.108,0,0,0-1.2.008,1.4,1.4,0,0,0-.916.911,1.572,1.572,0,0,0-.069.458,2.753,2.753,0,0,0,1.132,1.951,10.351,10.351,0,0,0,3.63,1.865Q1208.8-233.88,1209.208-233.771Z" transform="translate(-1182.026 292.367)" fill="#fff" fill-rule="evenodd"/>
        <path id="Path_4577" data-name="Path 4577" d="M1219.753-210.069c0,3.182-3.107,5.764-6.942,5.764s-6.94-2.582-6.94-5.764,3.655-3.376,3.655-3.376Z" transform="translate(-1179.645 310.037)" fill-rule="evenodd" fill="url(#linear-gradient-2)"/>
        <path id="Path_4578" data-name="Path 4578" d="M1202.571-222.332H1232a3.6,3.6,0,0,1,2.549,1.059,3.6,3.6,0,0,1,1.058,2.549,3.6,3.6,0,0,1-1.058,2.547,3.594,3.594,0,0,1-1.742.967,3.59,3.59,0,0,1,.791,2.249,3.6,3.6,0,0,1-1.059,2.547,3.6,3.6,0,0,1-2.549,1.059h-.47a3.589,3.589,0,0,1,.72,2.158,3.594,3.594,0,0,1-1.06,2.547,3.6,3.6,0,0,1-2.549,1.059h-18.7a3.6,3.6,0,0,1-2.547-1.059,3.6,3.6,0,0,1-1.06-2.547,3.579,3.579,0,0,1,.72-2.158h-.471a3.594,3.594,0,0,1-2.547-1.059,3.6,3.6,0,0,1-1.06-2.547,3.6,3.6,0,0,1,.789-2.249,3.589,3.589,0,0,1-1.74-.967,3.592,3.592,0,0,1-1.059-2.547,3.593,3.593,0,0,1,1.059-2.549A3.593,3.593,0,0,1,1202.571-222.332Z" transform="translate(-1184.119 304.281)" fill-rule="evenodd" fill="url(#linear-gradient-3)"/>
      </g>
      <path id="Path_4579" data-name="Path 4579" d="M943.011-15.11h608.1a9.219,9.219,0,0,1,9.192,9.191h0a9.22,9.22,0,0,1-9.192,9.191H1517a10.783,10.783,0,0,0-10.75,10.749h0a10.785,10.785,0,0,0,9.789,10.707H1534.6c3.183,0,5.785,3.391,5.785,7.536h0c0,4.142-2.6,7.533-5.785,7.533H1085.827a4.674,4.674,0,0,1-.628-.043q-.516.042-1.045.043H981.972a12.376,12.376,0,0,1-12.341-12.338h0a12.378,12.378,0,0,1,12.341-12.343h13.9a5.378,5.378,0,0,0,5.363-5.362h0a5.38,5.38,0,0,0-5.363-5.365H943.011a9.779,9.779,0,0,1-9.751-9.749v0a9.778,9.778,0,0,1,9.751-9.749ZM1572.748,3.272h0a9.12,9.12,0,0,0,9.093-9.094v-.2a9.12,9.12,0,0,0-9.093-9.092h0a9.118,9.118,0,0,0-9.092,9.092v.2a9.119,9.119,0,0,0,9.092,9.094ZM950.58,15.117a11.943,11.943,0,0,0-11.908,11.908v.865A11.943,11.943,0,0,0,950.58,39.8h0A11.942,11.942,0,0,0,962.487,27.89v-.865A11.942,11.942,0,0,0,950.58,15.117Z" transform="translate(0 183.477)" fill-rule="evenodd" fill="url(#linear-gradient-4)"/>
      <path id="Rectangle_3019" data-name="Rectangle 3019" d="M15.982,0H194.688A15.982,15.982,0,0,1,210.67,15.982V407.638a15.981,15.981,0,0,1-15.981,15.981H15.981A15.981,15.981,0,0,1,0,407.638V15.982A15.982,15.982,0,0,1,15.982,0Z" transform="translate(1004.332 -239.721)" fill="url(#linear-gradient-5)"/>
      <path id="Rectangle_3020" data-name="Rectangle 3020" d="M13.441,0H188.858A13.441,13.441,0,0,1,202.3,13.441V401.806a13.442,13.442,0,0,1-13.442,13.442H13.441A13.441,13.441,0,0,1,0,401.806V13.441A13.441,13.441,0,0,1,13.441,0Z" transform="translate(1008.518 -235.535)" fill="url(#linear-gradient-6)"/>
      <path id="Path_4580" data-name="Path 4580" d="M1131.514-251.482v1.9a8.436,8.436,0,0,1-8.417,8.418h-94.466a8.436,8.436,0,0,1-8.418-8.418v-1.9a3.705,3.705,0,0,0-3.388-2.242H996.86a11.48,11.48,0,0,0-11.408,11.407V128.636a11.481,11.481,0,0,0,11.408,11.409h158a11.481,11.481,0,0,0,11.41-11.409V-242.318a11.48,11.48,0,0,0-11.41-11.407H1134.9A3.7,3.7,0,0,0,1131.514-251.482Z" transform="translate(33.804 28.93)" fill="#fff" fill-rule="evenodd"/>
      <path id="Path_4581" data-name="Path 4581" d="M1036.489-250.305a1.66,1.66,0,0,1-1.661-1.661,1.66,1.66,0,0,1,1.661-1.661h30.759a1.66,1.66,0,0,1,1.661,1.661,1.66,1.66,0,0,1-1.661,1.661Zm-5.541-3.322a1.66,1.66,0,0,1,1.659,1.661,1.66,1.66,0,0,1-1.659,1.661h-1.417a1.661,1.661,0,0,1-1.661-1.661,1.661,1.661,0,0,1,1.661-1.661Z" transform="translate(61.277 28.993)" fill="#e6e0de" fill-rule="evenodd"/>
      <path id="Path_4582" data-name="Path 4582" d="M994.894-30.237a6.827,6.827,0,0,0-2.009,4.844,6.836,6.836,0,0,0,2.009,4.851l.046.043a6.831,6.831,0,0,0,4.8,1.964,6.845,6.845,0,0,0,4.271-1.49l2.864,2.864a.774.774,0,0,0,1.1,0,.774.774,0,0,0,0-1.1l-2.864-2.864a6.846,6.846,0,0,0,1.49-4.272,6.832,6.832,0,0,0-2.007-4.844,6.825,6.825,0,0,0-4.849-2.012A6.828,6.828,0,0,0,994.9-30.24l0,0Zm8.617,8.583-.015.016-.016.015a5.293,5.293,0,0,1-3.737,1.539,5.3,5.3,0,0,1-3.719-1.516l-.035-.038a5.3,5.3,0,0,1-1.554-3.755,5.3,5.3,0,0,1,1.552-3.753,5.3,5.3,0,0,1,3.755-1.552,5.3,5.3,0,0,1,3.753,1.554,5.293,5.293,0,0,1,1.554,3.752A5.294,5.294,0,0,1,1003.511-21.654Z" transform="translate(38.618 172.376)" fill="#0a1432" fill-rule="evenodd"/>
      <g id="Group_10808" data-name="Group 10808" transform="translate(1029.177 -221.04)">
        <path id="Path_4583" data-name="Path 4583" d="M992.027-250.339a.554.554,0,0,1-.554-.554.553.553,0,0,1,.554-.554h12.112a.553.553,0,0,1,.554.554.554.554,0,0,1-.554.554Zm0,7.957a.554.554,0,0,1-.554-.554.553.553,0,0,1,.554-.554h12.112a.553.553,0,0,1,.554.554.554.554,0,0,1-.554.554Zm0-3.977a.554.554,0,0,1-.554-.554.553.553,0,0,1,.554-.554h12.112a.553.553,0,0,1,.554.554.554.554,0,0,1-.554.554Z" transform="translate(-991.473 251.446)" fill="#0a1432" fill-rule="evenodd"/>
        <path id="Path_4584" data-name="Path 4584" d="M1095.261-250.61Zm-14.567.613h7.113v5.722h-7.113a.568.568,0,0,1-.4-.168.571.571,0,0,1-.168-.405v-4.577a.568.568,0,0,1,.168-.4.572.572,0,0,1,.4-.168Zm13.381-1.107h-13.381a1.67,1.67,0,0,0-1.187.494,1.674,1.674,0,0,0-.493,1.185v4.577a1.665,1.665,0,0,0,.494,1.188,1.67,1.67,0,0,0,1.185.494h13.381a1.674,1.674,0,0,0,1.15-.46l.036-.035a1.669,1.669,0,0,0,.493-1.188v-4.577a1.681,1.681,0,0,0-.494-1.188A1.683,1.683,0,0,0,1094.075-251.1Z" transform="translate(-934.774 251.667)" fill="#0a1432" fill-rule="evenodd"/>
      </g>
      <g id="Group_10809" data-name="Group 10809" transform="translate(1211.951 -183.466)">
        <path id="Path_4585" data-name="Path 4585" d="M1129.15-17.027c-.071,1.216.224,6.582-.916,8.815-.282.559.234,1.193.456,1.691.71,1.583,2.949,3.714,10.268,4.806s15.511.328,19.77-.219,1.748-2.621-.219-3.495-16.953-5.745-19.128-7.883-.6-5.811-.923-6.413S1130.188-20.3,1129.15-17.027Z" transform="translate(-1085.723 363.759)" fill="#f6cccf" fill-rule="evenodd"/>
        <path id="Path_4586" data-name="Path 4586" d="M1128.97-12.856A2.522,2.522,0,0,0,1127.187-11a19.376,19.376,0,0,0,.927,8.683c.929,1.857,5.9,1.145,14.528,1.145h12.892c4.7,0,11.633-1.364,12.4-3.167s-2.93-5.581-9.3-5.984c0,0,1.274.85-.364,2.053s-7.354,2.43-16,1.419S1129.28-11.536,1128.97-12.856Z" transform="translate(-1086.459 368.403)" fill-rule="evenodd" fill="url(#linear-gradient-7)"/>
        <path id="Path_4587" data-name="Path 4587" d="M1145.841-123.871l2.2,3.208s5.216,57.2,4.907,75.128-3.709,20.7-3.862,38.781-2.007,52.841-1.852,57.168-7.883,3.4-10.2,1.546-4.63-62.363-4.016-71.384-1.083-21.631-3.091-29.975-14.369-54.542-14.369-66.593S1145.841-123.871,1145.841-123.871Z" transform="translate(-1093.879 296.048)" fill-rule="evenodd" fill="url(#linear-gradient-8)"/>
        <path id="Path_4588" data-name="Path 4588" d="M1121.188-72.084a6.162,6.162,0,0,1-3.142.428,32.5,32.5,0,0,0-4.427-.1,6.441,6.441,0,0,0-1.713.363c-1.621.621-3.87,2.74-5.363,9.988s-1.18,15.468-.867,19.754,2.521,1.888,3.5-.028,6.075-14.981,9.873-18.382,4.322-2.989,4.94-3.284S1124.4-70.87,1121.188-72.084Z" transform="translate(-1100.45 330.042)" fill="#f6cccf" fill-rule="evenodd"/>
        <path id="Path_4589" data-name="Path 4589" d="M1115.569-71.023a2.525,2.525,0,0,0-1.755-1.883,19.343,19.343,0,0,0-8.721.45c-1.9.825-1.47,5.826-1.943,14.444s-.451,8.181-.708,12.868.725,11.692,2.481,12.555,5.734-2.618,6.487-8.96c0,0-.919,1.224-2.029-.478s-2.025-7.476-.539-16.057S1114.233-70.788,1115.569-71.023Z" transform="translate(-1102.401 329.311)" fill-rule="evenodd" fill="url(#linear-gradient-9)"/>
        <path id="Path_4590" data-name="Path 4590" d="M1119-130.015c-2.457,1.8-12.11,8.217-13.079,10.313-18.245,39.53,56.426,50.389,65.192,63.424,1.483,2.206-48.173,20.561-49.63,21.718s-.255,8.884,1.531,10.143,62.345-12.354,76.113-20.726c0,0,8.723-6.637.4-21.331s-46.893-39.254-49.51-42.339-6.894-6.879-5.208-12.2S1119-130.015,1119-130.015Z" transform="translate(-1101.971 292.521)" fill-rule="evenodd" fill="url(#linear-gradient-10)"/>
        <path id="Path_4591" data-name="Path 4591" d="M1153.29-163.426l1.952-.638a12.977,12.977,0,0,1,2.328-3.885c1.27-1.162,3.495-3.042,3.673-5.683s-9.758-4.071-9.764-3.514-4.167,4.587-3.781,6.261a27.259,27.259,0,0,0,1.74,4.406Z" transform="translate(-1073.08 261.918)" fill="#f6cccf" fill-rule="evenodd"/>
        <path id="Path_4592" data-name="Path 4592" d="M1138.226-167.2s12.451,28.81,14.892,31.78,13.168-28.89,15.5-34.639c0,0,4.5.237,5.95,1.659,0,0-7.24,38.322-10.6,46.012s-10.756,8.741-17.474,5.9-24.025-33.257-27.653-38.864S1124.733-180.454,1138.226-167.2Z" transform="translate(-1092.258 265.501)" fill-rule="evenodd" fill="url(#linear-gradient-11)"/>
        <path id="Path_4593" data-name="Path 4593" d="M1108.759-145.9c-13.028-18.125-3.609-30.746,6.619-36.763,4.732-2.785,8.846-12.315,8.761-16.465-.3-14.6,7.207-31.352,22.385-26.643,27.87-11.374,29.8,13.635,25.6,30.223-1.163,4.594,1.5,9.187,5.586,13.345,9.931,10.107,4.075,23.173.162,30.316s3.045,15.086-.656,20.7c-4.388,6.652-24.239,24.059-28.05,5.782C1142.359-158.082,1129.68-142.442,1108.759-145.9Z" transform="translate(-1102.401 228.642)" fill-rule="evenodd" fill="url(#linear-gradient-12)"/>
        <path id="Path_4594" data-name="Path 4594" d="M1136.824-192.584l.491,4.778a3.176,3.176,0,0,0-3.014,1.913c-.756,2.009-2.829,13.814-2.7,17.933,0,0-.173.371-.84.119s-8.382-9.006-14.175-10.988l12.681-28.731Z" transform="translate(-1093.212 242.297)" fill="#f6cccf" fill-rule="evenodd"/>
        <path id="Path_4595" data-name="Path 4595" d="M1139.965-180.224s1.031,3.5,6.182,10.254,17.4,18.538,17.391,24.611-6.808,19.637-7.713,25.92c-2.274,15.785,3.592,29.886,1.745,45.776-.2,1.691-.849,1.3-1.443,1.157a134.955,134.955,0,0,0-26.965-1.679c-12.481.73-21.324-2.791-24.193-5.151,0,0-1.468-1.651-1.03-3.157s8.823-18.836,8.693-37.236-24.836-58.178,12.2-70.394c0,0,5.9,1.415,8,2.516S1139.965-180.224,1139.965-180.224Z" transform="translate(-1101.458 253.59)" fill-rule="evenodd" fill="url(#linear-gradient-13)"/>
        <path id="Path_4596" data-name="Path 4596" d="M1136.023-173.866s6.807,35.074,8.8,38.973,21.693-28.905,25.687-34.727c0,0,4.95,1.361,6.208,3.3,0,0-17.406,40.839-23.018,48.567s-14.094,7.092-20.87,2.289-18.588-42.843-21.253-49.961S1124.257-191.891,1136.023-173.866Z" transform="translate(-1096.656 259.28)" fill-rule="evenodd" fill="url(#linear-gradient-14)"/>
        <path id="Path_4597" data-name="Path 4597" d="M1166.468-194.367s1.608.428,1.653,1.557-3.645,26.847-4.114,27.864-.916,2.638-11.694,1.475c0,0-1.88-.358-2.29-1.33s2.177-23.977,2.313-26.656,1.813-3.2,3.358-3.337S1166.468-194.367,1166.468-194.367Z" transform="translate(-1071.587 250.551)" fill-rule="evenodd" fill="url(#linear-gradient-15)"/>
        <path id="Path_4598" data-name="Path 4598" d="M1145.456-222.611s7.291,4.864,7.238,11.318-.975,11.41-1.422,12.231-.963.761-1.051,1.537a36.739,36.739,0,0,0-.2,6.263c.167,3.075-2,2.21-3.318,3.019s-.687,1.4-1.137,3.01-1.557,1.391-1.83,2.231.068,1.3-.2,1.7a37.225,37.225,0,0,0-3.231,3.966c-.977,1.633-3.758.784-6.187-.109s-8.423-6.391-10.356-12.29.138-13.951.138-13.951-1.333-3.561-.572-6.353,1.046-2.234,2.419-2.775,1.587,4.376,1.587,4.376S1135.555-225.114,1145.456-222.611Z" transform="translate(-1089.102 232.382)" fill="#f6cccf" fill-rule="evenodd"/>
        <path id="Path_4599" data-name="Path 4599" d="M1148.267-216.478c-3.778,8.726-17.355,5.413-22.664,9.858l1.406-9.09,2.645-6.307s6.215-3.9,6.97-3.641S1148.608-222.321,1148.267-216.478Z" transform="translate(-1087.374 230.566)" fill-rule="evenodd" fill="url(#linear-gradient-16)"/>
        <path id="Path_4600" data-name="Path 4600" d="M1153.063-162.832a26.506,26.506,0,0,1,5.241-3.487c3.641-1.966,6.739-3.655,7.232-4.961a2.576,2.576,0,0,0-.559-3.022c-.69-.422-2.516.105-3.282-.155s1.213-1.366,2.493-1.616,2.816-.241,3.366-.575a1.056,1.056,0,0,0,.348-1.284c-.115-.226-1.178-.264-2.572-.369a7.419,7.419,0,0,0-3.5.232,9.262,9.262,0,0,1-2.781.573,1.933,1.933,0,0,1-.016-1.951,13.631,13.631,0,0,1,2.918-2.818c.62-.44,2.676-.259,3.625-.6s.885-1.489-.257-1.707a19.261,19.261,0,0,0-4.091-.049c-1.658.064-2.341,1.064-4.464,2.439s-5.976,3.941-7.086,6.657-1.412,6.264-2.365,8.088S1148.441-163.44,1153.063-162.832Z" transform="translate(-1073.459 257.1)" fill="#f6cccf" fill-rule="evenodd"/>
        <path id="Path_4601" data-name="Path 4601" d="M1122.1-210.341l11.013-.516c8.187,7.227,6.217,26.121.066,34.453-7.115,9.639-18.858,1.585-23.344,6.185l-1.341-11.206S1129.676-199.051,1122.1-210.341Z" transform="translate(-1098.457 240.161)" fill-rule="evenodd" fill="url(#linear-gradient-17)"/>
      </g>
      <g id="Group_10810" data-name="Group 10810" transform="translate(1041.361 -192.407)">
        <path id="Path_4602" data-name="Path 4602" d="M1067.552-227.416a.985.985,0,0,1-.983.985.983.983,0,0,1-.982-.985v-5.67a.981.981,0,0,1,.982-.982.984.984,0,0,1,.983.982v5.67Zm61.276,62.03a.983.983,0,0,1-.984-.982.983.983,0,0,1,.984-.984h5.668a.985.985,0,0,1,.985.984.984.984,0,0,1-.985.982Zm-8.072-30.879a.979.979,0,0,1-1.34-.358.98.98,0,0,1,.356-1.34l4.912-2.836a.98.98,0,0,1,1.338.358.979.979,0,0,1-.356,1.34l-4.91,2.836Zm-22.43-22.7a.982.982,0,0,1-1.343.358.982.982,0,0,1-.354-1.341l2.832-4.908a.981.981,0,0,1,1.341-.358.979.979,0,0,1,.357,1.34l-2.834,4.91Zm-92.8,52.826a.983.983,0,0,1,.984.984.984.984,0,0,1-.984.984h-5.67a.985.985,0,0,1-.984-.984.984.984,0,0,1,.984-.984Zm8.446-30.772a.978.978,0,0,1,.359,1.335.98.98,0,0,1-1.336.362l-4.91-2.836a.977.977,0,0,1-.361-1.335.98.98,0,0,1,1.336-.362l4.912,2.836Zm22.705-22.428a.981.981,0,0,1-.363,1.338.977.977,0,0,1-1.334-.362l-2.836-4.908a.98.98,0,0,1,.361-1.338.979.979,0,0,1,1.336.362Z" transform="translate(-998.868 234.068)" fill="#b21555" fill-rule="evenodd"/>
        <path id="Path_4603" data-name="Path 4603" d="M1088.433-171.578a9.085,9.085,0,0,0,6.441-2.669,9.073,9.073,0,0,0,2.668-6.441,9.065,9.065,0,0,0-2.45-6.212,9.085,9.085,0,0,0-4.767-2.7,9.09,9.09,0,0,0,.349-2.5,9.087,9.087,0,0,0-2.668-6.442,9.086,9.086,0,0,0-6.441-2.668,9.063,9.063,0,0,0-1.02.058,9.1,9.1,0,0,0-2.6-5.322,9.083,9.083,0,0,0-6.441-2.668,9.105,9.105,0,0,0-1.709.16,9.14,9.14,0,0,0-2.989-3.729,9.071,9.071,0,0,0-5.363-1.751,9.1,9.1,0,0,0-3.933.893,9.215,9.215,0,0,0-2.574,1.842,10.366,10.366,0,0,0-5.344-1.476,10.388,10.388,0,0,0-7.367,3.05,10.37,10.37,0,0,0-2.027,2.862,8.749,8.749,0,0,0-1.069-.33,9.019,9.019,0,0,0-2.162-.264,9.086,9.086,0,0,0-6.428,2.658,9.081,9.081,0,0,0-2.6,5.241,8.553,8.553,0,0,0-1.035-.063,8.317,8.317,0,0,0-5.894,2.442,8.307,8.307,0,0,0-2.44,5.894,8.3,8.3,0,0,0,.318,2.279,8.029,8.029,0,0,0,.461,1.239,9.155,9.155,0,0,0-2.669,2.846,9.068,9.068,0,0,0-1.287,4.665,9.08,9.08,0,0,0,2.668,6.441,9.087,9.087,0,0,0,6.441,2.669h63.928Zm-21.328-12.5a.98.98,0,0,0,.98.982.983.983,0,0,0,.985-.982,7.032,7.032,0,0,0-2.065-4.983,7.028,7.028,0,0,0-4.981-2.065,7.032,7.032,0,0,0-3.772,1.094,7.07,7.07,0,0,0-1.989,1.9,9.043,9.043,0,0,0-4.623-1.641,1,1,0,0,0-.222.012,6.97,6.97,0,0,0-2.424-1.509,6.971,6.971,0,0,0-5.347.217,6.97,6.97,0,0,0-3.628,3.938.983.983,0,0,0,.585,1.26.983.983,0,0,0,1.259-.585,5,5,0,0,1,2.607-2.831,5.026,5.026,0,0,1,3.849-.157,4.966,4.966,0,0,1,2.02,1.374,5.024,5.024,0,0,1,1.139,2.172.979.979,0,0,0,1.18.725.979.979,0,0,0,.727-1.178,7.285,7.285,0,0,0-.417-1.229,7.143,7.143,0,0,1,3.276,2,7.131,7.131,0,0,1,1.92,4.877,7.119,7.119,0,0,1-2.093,5.052,7.121,7.121,0,0,1-5.05,2.091H1024.5a7.123,7.123,0,0,1-5.05-2.091,7.126,7.126,0,0,1-2.093-5.052,7.1,7.1,0,0,1,1.005-3.658,7.163,7.163,0,0,1,2.753-2.636.984.984,0,0,0,.4-1.33.914.914,0,0,0-.061-.094,6.431,6.431,0,0,1-.68-1.562,6.388,6.388,0,0,1-.241-1.748,6.351,6.351,0,0,1,1.865-4.5,6.344,6.344,0,0,1,4.5-1.865,6.348,6.348,0,0,1,4.5,1.865,6.35,6.35,0,0,1,1.864,4.5,6.346,6.346,0,0,1-.746,3,6.4,6.4,0,0,1-1.867,2.145,4.373,4.373,0,0,0-2.788,1.275,4.386,4.386,0,0,0-1.288,3.109,4.49,4.49,0,0,0,.166,1.2,4.476,4.476,0,0,0,.493,1.111.98.98,0,0,0,1.349.32.981.981,0,0,0,.318-1.349,2.426,2.426,0,0,1-.269-.611,2.456,2.456,0,0,1-.092-.671,2.418,2.418,0,0,1,.714-1.719,2.427,2.427,0,0,1,1.719-.712,2.434,2.434,0,0,1,1.719.712,2.429,2.429,0,0,1,.71,1.719,2.44,2.44,0,0,1-.281,1.148,2.473,2.473,0,0,1-.8.88.978.978,0,0,0-.268,1.359.979.979,0,0,0,1.359.269,4.388,4.388,0,0,0,1.437-1.585,4.379,4.379,0,0,0,.522-2.071,4.379,4.379,0,0,0-1.289-3.109,4.506,4.506,0,0,0-1.054-.779,8.447,8.447,0,0,0,1.221-1.719,8.314,8.314,0,0,0,.985-3.926,8.314,8.314,0,0,0-2.442-5.894,8.307,8.307,0,0,0-2.943-1.9,7.123,7.123,0,0,1,2.068-4.327,7.114,7.114,0,0,1,5.044-2.081,7.11,7.11,0,0,1,1.7.2,6.862,6.862,0,0,1,.85.265,10.684,10.684,0,0,0-.331,2.158,6.978,6.978,0,0,0-1.928.573,6.975,6.975,0,0,0-3.63,3.936.984.984,0,0,0,.585,1.26.981.981,0,0,0,1.259-.585,5.008,5.008,0,0,1,2.608-2.829,5.014,5.014,0,0,1,3.847-.157,4.98,4.98,0,0,1,2.022,1.373,5.065,5.065,0,0,1,1.138,2.173.978.978,0,0,0,1.18.725A.979.979,0,0,0,1047-198a7.039,7.039,0,0,0-1.578-3.025,6.967,6.967,0,0,0-2.812-1.913h0a6.949,6.949,0,0,0-1.445-.361,8.425,8.425,0,0,1,2.458-5.465,8.426,8.426,0,0,1,5.974-2.473,8.419,8.419,0,0,1,4.907,1.567l.068.049a8.455,8.455,0,0,1,3.045,4.155.979.979,0,0,0,1.238.623.981.981,0,0,0,.623-1.237,10.462,10.462,0,0,0-2.936-4.467,7.1,7.1,0,0,1,1.821-1.254,7.115,7.115,0,0,1,3.086-.694,7.107,7.107,0,0,1,4.212,1.368,7.183,7.183,0,0,1,2.252,2.724,9.136,9.136,0,0,0-2.846,1.929,9.083,9.083,0,0,0-2.633,5.65,4.144,4.144,0,0,0-.506.168,4.407,4.407,0,0,0-1.409.921.98.98,0,0,0-.02,1.387.981.981,0,0,0,1.387.018,2.4,2.4,0,0,1,.778-.5,2.39,2.39,0,0,1,.913-.178,2.418,2.418,0,0,1,1.719.713,2.415,2.415,0,0,1,.713,1.719,2.438,2.438,0,0,1-.283,1.148,2.442,2.442,0,0,1-.8.878.983.983,0,0,0-.269,1.361.981.981,0,0,0,1.361.269,4.448,4.448,0,0,0,1.438-1.585,4.4,4.4,0,0,0,.521-2.071,4.386,4.386,0,0,0-1.288-3.109,4.392,4.392,0,0,0-2.269-1.208,7.11,7.11,0,0,1,2.04-4.185,7.117,7.117,0,0,1,5.052-2.094,7.117,7.117,0,0,1,5.05,2.094,7.129,7.129,0,0,1,2.06,4.365c-.142.049-.282.1-.422.156a9.1,9.1,0,0,0-2.9,1.857.981.981,0,0,0-.035,1.387.981.981,0,0,0,1.387.033,7.118,7.118,0,0,1,2.269-1.457,7.132,7.132,0,0,1,2.65-.5,7.123,7.123,0,0,1,5.05,2.091,7.119,7.119,0,0,1,2.093,5.052,7.115,7.115,0,0,1-2.093,5.05,7.119,7.119,0,0,1-5.05,2.094,7.115,7.115,0,0,1-2.719-.534,7.173,7.173,0,0,1-2.312-1.534.981.981,0,0,0-1.387,0,.981.981,0,0,0,0,1.386,9.117,9.117,0,0,0,2.948,1.959,9.124,9.124,0,0,0,3.465.685,9.08,9.08,0,0,0,6.441-2.669,9.115,9.115,0,0,0,1.559-2.081,7.13,7.13,0,0,1,4.091,2.178,7.123,7.123,0,0,1,1.92,4.877,7.118,7.118,0,0,1-2.093,5.052,7.12,7.12,0,0,1-5.05,2.091h-31.757a9.1,9.1,0,0,0,.786-.7,9.073,9.073,0,0,0,2.668-6.441,9.071,9.071,0,0,0-2.383-6.139,5.129,5.129,0,0,1,1.559-1.546,5.064,5.064,0,0,1,2.72-.788,5.058,5.058,0,0,1,3.59,1.488A5.063,5.063,0,0,1,1067.105-184.081Z" transform="translate(-988.163 246.764)" fill="#d52b58" fill-rule="evenodd"/>
        <path id="Path_4604" data-name="Path 4604" d="M1053.5-91.84h-15.113a3.539,3.539,0,0,0-2.506,1.043,3.526,3.526,0,0,0-1.043,2.5,3.532,3.532,0,0,0,1.043,2.5,3.546,3.546,0,0,0,2.506,1.043h46.273a3.542,3.542,0,0,0,2.5-1.043,3.533,3.533,0,0,0,1.043-2.5,3.527,3.527,0,0,0-1.043-2.5,3.535,3.535,0,0,0-2.5-1.043H1053.5Zm-36.794-52.416c.148.224.957,1.452,2.144,3.343h0a.768.768,0,0,1,.049.077c4.085,6.513,12.493,20.645,13.78,28.533a70.368,70.368,0,0,1,.74,8.578c.218,5.292.368,8.906,4.269,9.952l.023.007a5.414,5.414,0,0,1,.677-.041h14.122v-33.2q0-.724-.033-1.4-1.186-.274-2.26-.615a18.285,18.285,0,0,1-6.456-3.358,6.334,6.334,0,0,1-2.519-4.666,4.512,4.512,0,0,1,.212-1.359,4.281,4.281,0,0,1,2.8-2.8,5.373,5.373,0,0,1,3.1-.053,7.277,7.277,0,0,1,3.124,1.826c1.836,1.76,3.379,4.783,3.851,9.4a39.942,39.942,0,0,0,7.2.623,39.949,39.949,0,0,0,7.194-.623c.469-4.62,2.015-7.645,3.85-9.4a7.292,7.292,0,0,1,3.122-1.826,5.373,5.373,0,0,1,3.1.053,4.277,4.277,0,0,1,2.8,2.8,4.51,4.51,0,0,1,.211,1.359,6.329,6.329,0,0,1-2.519,4.666,18.277,18.277,0,0,1-6.454,3.358c-.715.226-1.472.432-2.261.615q-.032.677-.033,1.4v33.2h14.122a5.391,5.391,0,0,1,.676.041l.023-.007c3.9-1.046,4.052-4.66,4.271-9.952a69.744,69.744,0,0,1,.74-8.578c1.285-7.887,9.693-22.02,13.779-28.533a.563.563,0,0,1,.048-.077h0c1.188-1.893,2-3.121,2.145-3.345a51.7,51.7,0,0,0,4.782-10.766,51.926,51.926,0,0,0,2.368-15.557,51.806,51.806,0,0,0-15.221-36.747,51.8,51.8,0,0,0-36.745-15.221,51.8,51.8,0,0,0-36.748,15.221,51.8,51.8,0,0,0-15.221,36.747,51.921,51.921,0,0,0,2.366,15.557,51.816,51.816,0,0,0,4.783,10.768ZM1035.1-92.715c-3.267-1.9-3.427-5.717-3.643-10.932a67.36,67.36,0,0,0-.717-8.341c-1.229-7.555-9.463-21.367-13.49-27.783l-.013-.021a53.765,53.765,0,0,1-7.191-14.646,53.961,53.961,0,0,1-2.458-16.142,53.762,53.762,0,0,1,15.8-38.137,53.768,53.768,0,0,1,38.139-15.8,53.769,53.769,0,0,1,38.136,15.8,53.76,53.76,0,0,1,15.8,38.137A53.954,53.954,0,0,1,1113-154.439a53.757,53.757,0,0,1-7.189,14.646l-.015.021c-4.027,6.414-12.26,20.229-13.49,27.783a67.669,67.669,0,0,0-.717,8.341c-.216,5.215-.374,9.028-3.641,10.932a5.609,5.609,0,0,1,.608.526,5.5,5.5,0,0,1,1.618,3.9,5.5,5.5,0,0,1-1.618,3.9,5.517,5.517,0,0,1-2.916,1.531,5.5,5.5,0,0,1,1.376,3.636,5.5,5.5,0,0,1-1.62,3.9,5.5,5.5,0,0,1-3.9,1.62h-1.064a5.5,5.5,0,0,1,1.3,3.547,5.511,5.511,0,0,1-1.618,3.9,5.512,5.512,0,0,1-3.9,1.618h-2.857a9.47,9.47,0,0,1-3.5,6.177,13.073,13.073,0,0,1-8.341,2.885,13.072,13.072,0,0,1-8.344-2.885,9.471,9.471,0,0,1-3.5-6.177h-2.859a5.505,5.505,0,0,1-3.9-1.618,5.511,5.511,0,0,1-1.618-3.9,5.487,5.487,0,0,1,1.3-3.547h-1.063a5.5,5.5,0,0,1-3.9-1.62,5.5,5.5,0,0,1-1.62-3.9,5.5,5.5,0,0,1,1.376-3.636,5.521,5.521,0,0,1-2.918-1.531,5.5,5.5,0,0,1-1.618-3.9,5.5,5.5,0,0,1,1.618-3.9,5.946,5.946,0,0,1,.61-.526Zm16.568,28.062a7.573,7.573,0,0,0,2.766,4.671,11.1,11.1,0,0,0,7.092,2.425,11.1,11.1,0,0,0,7.088-2.425,7.581,7.581,0,0,0,2.766-4.671Zm-4.841-9.062a3.536,3.536,0,0,0-2.506,1.043,3.537,3.537,0,0,0-1.043,2.5,3.536,3.536,0,0,0,1.043,2.5,3.544,3.544,0,0,0,2.506,1.045h29.393a3.545,3.545,0,0,0,2.506-1.045,3.53,3.53,0,0,0,1.043-2.5,3.53,3.53,0,0,0-1.043-2.5,3.537,3.537,0,0,0-2.506-1.043Zm-5.277-1.966H1081.5a3.544,3.544,0,0,0,2.5-1.045,3.533,3.533,0,0,0,1.043-2.5,3.53,3.53,0,0,0-1.043-2.5,3.536,3.536,0,0,0-2.5-1.043H1041.55a3.536,3.536,0,0,0-2.506,1.043,3.53,3.53,0,0,0-1.045,2.5,3.533,3.533,0,0,0,1.045,2.5,3.544,3.544,0,0,0,2.506,1.045Zm27.024-18.126h-14.1v-33.2c0-.343-.005-.676-.016-1a42.447,42.447,0,0,0,7.067.568,42.43,42.43,0,0,0,7.062-.568c-.01.328-.015.661-.015,1v33.2Zm5.357-44.211a5.311,5.311,0,0,1,2.272-1.343,3.449,3.449,0,0,1,1.977.015,2.349,2.349,0,0,1,1.541,1.536,2.5,2.5,0,0,1,.12.766,4.481,4.481,0,0,1-1.835,3.185,16.431,16.431,0,0,1-5.765,2.966q-.717.227-1.493.423c.476-3.725,1.722-6.148,3.183-7.548ZM1052.3-130.47q-.776-.2-1.495-.423a16.379,16.379,0,0,1-5.762-2.966,4.481,4.481,0,0,1-1.839-3.185,2.508,2.508,0,0,1,.122-.766,2.347,2.347,0,0,1,1.539-1.536,3.455,3.455,0,0,1,1.979-.015,5.322,5.322,0,0,1,2.272,1.343C1050.581-136.618,1051.825-134.2,1052.3-130.47Z" transform="translate(-993.219 240.255)" fill="#f5ac2d" fill-rule="evenodd"/>
      </g>
      <g id="Group_10811" data-name="Group 10811" transform="translate(1288.412 -219.465)">
        <path id="Path_4605" data-name="Path 4605" d="M1164.195-222.107a.6.6,0,0,0,1.015.425.6.6,0,0,0,.176-.425V-223.3a.6.6,0,0,0-1.015-.423.583.583,0,0,0-.177.423v1.193Zm25.948-27.188a.6.6,0,0,0,.425-1.018.6.6,0,0,0-.425-.176h-1.194a.6.6,0,0,0-.424,1.017.6.6,0,0,0,.424.178Zm-4.775,0a.6.6,0,0,0,.425-1.018.593.593,0,0,0-.425-.176h-1.191a.6.6,0,0,0-.425,1.017.594.594,0,0,0,.425.178Zm-4.773,0a.6.6,0,0,0,.425-1.018.6.6,0,0,0-.425-.176H1179.4a.6.6,0,0,0-.425,1.017.6.6,0,0,0,.425.178Zm-4.773,0a.6.6,0,0,0,.425-1.018.6.6,0,0,0-.425-.176h-1.193a.6.6,0,0,0-.425,1.017.6.6,0,0,0,.425.178Zm-4.483.593a.6.6,0,0,0-.324-1.143.436.436,0,0,0-.1.028,9.8,9.8,0,0,0-1.153.522.6.6,0,0,0,.273,1.124.588.588,0,0,0,.283-.071,9.291,9.291,0,0,1,1.021-.46Zm-3.648,2.529a.6.6,0,0,0-.733-.919.678.678,0,0,0-.165.132,11.492,11.492,0,0,0-.778,1,.6.6,0,0,0,.811.842.624.624,0,0,0,.175-.168,9.878,9.878,0,0,1,.69-.885Zm-2.051,3.938a.6.6,0,0,0-.961-.6.6.6,0,0,0-.2.323,10.376,10.376,0,0,0-.218,1.249.6.6,0,0,0,1.163.239.487.487,0,0,0,.021-.11,9.224,9.224,0,0,1,.195-1.1Zm-.252,4.614a.6.6,0,0,0-1.015-.423.588.588,0,0,0-.177.423v1.195a.6.6,0,0,0,1.015.425.6.6,0,0,0,.176-.425v-1.195Zm0,4.775a.6.6,0,0,0-1.015-.425.59.59,0,0,0-.177.425v1.195a.6.6,0,0,0,1.015.422.59.59,0,0,0,.176-.422v-1.195Zm0,4.773a.6.6,0,0,0-1.015-.423.586.586,0,0,0-.177.423v1.193a.6.6,0,0,0,1.015.425.592.592,0,0,0,.176-.425Z" transform="translate(-1138.84 250.49)" fill="#ea6667" fill-rule="evenodd"/>
        <path id="Path_4606" data-name="Path 4606" d="M1175.353-233.029a.6.6,0,0,0-1.015-.423.588.588,0,0,0-.176.423v1.195a.6.6,0,0,0,1.015.425.6.6,0,0,0,.176-.425v-1.195Zm-25.949,27.19a.6.6,0,0,0-.425,1.018.6.6,0,0,0,.425.176h1.195a.6.6,0,0,0,.425-1.017.6.6,0,0,0-.425-.178Zm4.775,0a.6.6,0,0,0-.425,1.018.6.6,0,0,0,.425.176h1.193a.6.6,0,0,0,.423-1.017.587.587,0,0,0-.423-.178Zm4.773,0a.6.6,0,0,0-.425,1.018.6.6,0,0,0,.425.176h1.193a.6.6,0,0,0,.425-1.017.593.593,0,0,0-.425-.178Zm4.775,0a.6.6,0,0,0-.425,1.018.593.593,0,0,0,.425.176h1.191a.6.6,0,0,0,.425-1.017.591.591,0,0,0-.425-.178Zm4.482-.593a.6.6,0,0,0,.325,1.143.517.517,0,0,0,.1-.028,10.186,10.186,0,0,0,1.152-.522.6.6,0,0,0-.274-1.124.585.585,0,0,0-.285.071,9.031,9.031,0,0,1-1.02.46Zm3.65-2.531a.6.6,0,0,0,.732.921.584.584,0,0,0,.165-.133,10.773,10.773,0,0,0,.778-1,.6.6,0,0,0-.811-.844.653.653,0,0,0-.175.168,9.625,9.625,0,0,1-.689.883Zm2.051-3.936a.6.6,0,0,0,.959.6.583.583,0,0,0,.2-.323,10.351,10.351,0,0,0,.219-1.251.6.6,0,0,0-1.165-.237.5.5,0,0,0-.021.11,9.577,9.577,0,0,1-.193,1.1Zm.252-4.615a.6.6,0,0,0,1.015.425.6.6,0,0,0,.176-.425v-1.193a.6.6,0,0,0-1.015-.423.583.583,0,0,0-.176.423v1.193Zm0-4.773a.6.6,0,0,0,1.015.425.593.593,0,0,0,.176-.425v-1.195a.6.6,0,0,0-1.015-.422.585.585,0,0,0-.176.422v1.195Zm0-4.772a.6.6,0,0,0,1.015.422.591.591,0,0,0,.176-.422v-1.195a.6.6,0,0,0-1.015-.425.589.589,0,0,0-.176.425Z" transform="translate(-1148.807 261.412)" fill="#ea6667" fill-rule="evenodd"/>
      </g>
      <path id="Path_4607" data-name="Path 4607" d="M1291.486-284.741a35.226,35.226,0,0,0-7.079,3.116,35.549,35.549,0,0,0-6.255,4.6l-7.97-4.6-.076-.04a4.436,4.436,0,0,0-3.307-.4,4.452,4.452,0,0,0-2.709,2.074l-.033.064-6.131,10.618a4.443,4.443,0,0,0-.443,3.378,4.444,4.444,0,0,0,2.073,2.707l.064.035,7.9,4.561q-.373,1.678-.583,3.4a35.537,35.537,0,0,0-.262,4.309,35.532,35.532,0,0,0,.262,4.307q.21,1.723.583,3.4l-7.965,4.6v0a4.438,4.438,0,0,0-2.073,2.709,4.438,4.438,0,0,0,.443,3.376l6.111,10.585a1.173,1.173,0,0,0,.1.176,4.447,4.447,0,0,0,2.661,2,4.456,4.456,0,0,0,3.3-.4,1.285,1.285,0,0,0,.176-.1l7.878-4.548a35.537,35.537,0,0,0,6.255,4.6,35.371,35.371,0,0,0,7.08,3.116v9.192a4.448,4.448,0,0,0,1.31,3.15,4.452,4.452,0,0,0,3.152,1.31h12.329a4.456,4.456,0,0,0,3.152-1.31,4.446,4.446,0,0,0,1.308-3.15v-9.192a35.291,35.291,0,0,0,7.08-3.116,35.615,35.615,0,0,0,6.258-4.6l7.878,4.549a1.083,1.083,0,0,0,.2.112,4.441,4.441,0,0,0,3.271.386,4.442,4.442,0,0,0,2.661-1.994,1.208,1.208,0,0,0,.1-.176l6.11-10.583,0,0a4.449,4.449,0,0,0,.445-3.383,4.444,4.444,0,0,0-2.078-2.707l-7.96-4.6q.371-1.678.583-3.4a35.831,35.831,0,0,0,.26-4.307,35.885,35.885,0,0,0-.26-4.31q-.21-1.718-.583-3.4l7.96-4.6a4.449,4.449,0,0,0,2.078-2.707,4.45,4.45,0,0,0-.445-3.383l-.034-.059L1340.131-280h0a4.441,4.441,0,0,0-2.709-2.074,4.437,4.437,0,0,0-3.378.443l0,0,0,0-7.967,4.6a35.76,35.76,0,0,0-6.256-4.6,35.326,35.326,0,0,0-7.08-3.114v-9.191a4.45,4.45,0,0,0-1.308-3.152,4.454,4.454,0,0,0-3.152-1.308h-12.329a4.45,4.45,0,0,0-3.152,1.308,4.452,4.452,0,0,0-1.31,3.152v9.191Zm-36.394,74.182a18.037,18.037,0,0,0-3.21,1.46,17.943,17.943,0,0,0-2.879,2.065l-3.58-2.066a2.778,2.778,0,0,0-2.109-.28,2.781,2.781,0,0,0-1.692,1.3l-3.053,5.287a2.779,2.779,0,0,0-.275,2.1,2.783,2.783,0,0,0,1.3,1.692l.064.035,3.511,2.028c-.087.435-.158.877-.213,1.32a18.408,18.408,0,0,0-.133,2.2,18.338,18.338,0,0,0,.133,2.2q.082.667.213,1.323l-3.572,2.061,15.5-22.728Zm-2.058,3.45a15.6,15.6,0,0,1,3.478-1.483,1.155,1.155,0,0,0,.885-1.122v-4.971a.489.489,0,0,1,.112-.31l.031-.031a.487.487,0,0,1,.341-.143h6.1a.484.484,0,0,1,.341.143l0,0a.487.487,0,0,1,.142.343v4.971a1.153,1.153,0,0,0,.837,1.107,15.742,15.742,0,0,1,3.526,1.5,15.94,15.94,0,0,1,3.052,2.3,1.152,1.152,0,0,0,1.4.191l4.309-2.488,0,0a.477.477,0,0,1,.367-.041.463.463,0,0,1,.3.219l3.052,5.281a.492.492,0,0,1,.043.372.477.477,0,0,1-.224.3v0l-4.238,2.445a1.155,1.155,0,0,0-.608,1.307,15.672,15.672,0,0,1,.348,1.888,16.119,16.119,0,0,1,.115,1.929,16.119,16.119,0,0,1-.115,1.929,15.613,15.613,0,0,1-.348,1.888l0,0a1.148,1.148,0,0,0,.542,1.267l4.3,2.486a.474.474,0,0,1,.221.3.486.486,0,0,1-.043.371l-3.052,5.282a.471.471,0,0,1-.3.221.494.494,0,0,1-.336-.026l-4.338-2.506a1.146,1.146,0,0,0-1.373.168,15.953,15.953,0,0,1-3.078,2.318,15.616,15.616,0,0,1-3.477,1.481,1.155,1.155,0,0,0-.886,1.124v4.969a.481.481,0,0,1-.144.341.484.484,0,0,1-.341.143h-6.1a.5.5,0,0,1-.311-.112l-.03-.031a.482.482,0,0,1-.144-.341v-4.969a1.153,1.153,0,0,0-.837-1.109,15.64,15.64,0,0,1-3.526-1.5,16.057,16.057,0,0,1-3.078-2.318h0a1.149,1.149,0,0,0-1.367-.168l-4.309,2.488a.489.489,0,0,1-.372.044.477.477,0,0,1-.295-.221l-3.05-5.281a.483.483,0,0,1-.044-.372.485.485,0,0,1,.224-.3l0,0,4.24-2.447a1.15,1.15,0,0,0,.608-1.307,15.613,15.613,0,0,1-.346-1.888,15.768,15.768,0,0,1-.115-1.929,15.7,15.7,0,0,1,.115-1.928,15.639,15.639,0,0,1,.346-1.89h0a1.147,1.147,0,0,0-.544-1.269l-4.21-2.43a1.011,1.011,0,0,0-.127-.079.484.484,0,0,1-.188-.273.505.505,0,0,1,.018-.32,1.034,1.034,0,0,0,.079-.143l3-5.19a.469.469,0,0,1,.295-.219.488.488,0,0,1,.372.043l4.248,2.452a1.147,1.147,0,0,0,1.43-.13,15.848,15.848,0,0,1,3.076-2.318Zm-13.445,19.278,15.5-22.728v-4.126a2.766,2.766,0,0,1,.746-1.888,1.089,1.089,0,0,1,.073-.082,2.782,2.782,0,0,1,1.971-.817h6.1a2.779,2.779,0,0,1,1.971.817l0,0,0,0a2.774,2.774,0,0,1,.819,1.966v4.126a17.991,17.991,0,0,1,3.211,1.46,18.089,18.089,0,0,1,2.877,2.063l3.577-2.065v0l0,0a2.781,2.781,0,0,1,2.111-.28,2.778,2.778,0,0,1,1.691,1.3l3.05,5.281a2.781,2.781,0,0,1,.28,2.111,2.789,2.789,0,0,1-1.3,1.692l0,0-3.574,2.065c.086.435.157.877.211,1.32a18.434,18.434,0,0,1,.134,2.2,18.413,18.413,0,0,1-.134,2.2c-.054.443-.125.885-.211,1.321l3.571,2.061a2.793,2.793,0,0,1,1.3,1.692,2.782,2.782,0,0,1-.28,2.111l-3.05,5.282a2.776,2.776,0,0,1-1.691,1.3,2.775,2.775,0,0,1-2.031-.236.779.779,0,0,1-.082-.043l-3.577-2.065a17.978,17.978,0,0,1-2.877,2.061,18.231,18.231,0,0,1-3.211,1.461v4.124a2.78,2.78,0,0,1-.819,1.971,2.773,2.773,0,0,1-1.971.817h-6.1a2.771,2.771,0,0,1-1.89-.743c-.026-.025-.054-.048-.081-.074a2.787,2.787,0,0,1-.819-1.971v-4.124a18.221,18.221,0,0,1-3.211-1.461A18.092,18.092,0,0,1,1249-179.79l-3.58,2.066a2.777,2.777,0,0,1-2.109.278,2.778,2.778,0,0,1-1.692-1.3l-3.056-5.294a2.787,2.787,0,0,1-.272-2.1,2.785,2.785,0,0,1,1.3-1.692Zm0,0,0,0,0,0Zm21.339-15.44a9.831,9.831,0,0,1,6.97,2.887,9.825,9.825,0,0,1,2.885,6.968,9.823,9.823,0,0,1-2.885,6.968,9.831,9.831,0,0,1-6.97,2.887,9.822,9.822,0,0,1-6.966-2.887,9.817,9.817,0,0,1-2.887-6.968,9.82,9.82,0,0,1,2.887-6.968,9.822,9.822,0,0,1,6.966-2.887Zm-5.337,4.516a7.522,7.522,0,0,1,5.337-2.211,7.529,7.529,0,0,1,5.34,2.211,7.526,7.526,0,0,1,2.21,5.339,7.526,7.526,0,0,1-2.21,5.339,7.527,7.527,0,0,1-5.34,2.21,7.52,7.52,0,0,1-5.337-2.21,7.519,7.519,0,0,1-2.211-5.339,7.521,7.521,0,0,1,2.211-5.339Zm46.521-31.169a20.948,20.948,0,0,1-14.855-6.152,20.94,20.94,0,0,1-6.153-14.855,20.937,20.937,0,0,1,6.153-14.855,20.943,20.943,0,0,1,14.855-6.154,20.944,20.944,0,0,1,14.854,6.154,20.945,20.945,0,0,1,6.154,14.855,20.948,20.948,0,0,1-6.154,14.855,20.949,20.949,0,0,1-14.854,6.152Zm-16.078-4.93a22.669,22.669,0,0,1-6.66-16.078,22.669,22.669,0,0,1,6.66-16.078,22.666,22.666,0,0,1,16.078-6.66,22.669,22.669,0,0,1,16.076,6.66,22.669,22.669,0,0,1,6.658,16.078,22.669,22.669,0,0,1-6.658,16.078,22.667,22.667,0,0,1-16.076,6.658,22.665,22.665,0,0,1-16.078-6.658Zm-.475-44.786a32.969,32.969,0,0,1,7.347-3.127,1.154,1.154,0,0,0,.885-1.122v-10.046a2.146,2.146,0,0,1,.634-1.522,2.143,2.143,0,0,1,1.521-.634h12.329a2.152,2.152,0,0,1,1.523.634,2.152,2.152,0,0,1,.633,1.522v10.046a1.155,1.155,0,0,0,.837,1.109,32.907,32.907,0,0,1,7.393,3.141,33.3,33.3,0,0,1,6.423,4.836,1.149,1.149,0,0,0,1.4.189l8.711-5.029v0a2.174,2.174,0,0,1,1.636-.208,2.155,2.155,0,0,1,1.311,1l0,0,6.126,10.614.036.064a2.154,2.154,0,0,1,.209,1.636,2.136,2.136,0,0,1-1,1.312l-8.639,4.989a1.151,1.151,0,0,0-.608,1.307,32.7,32.7,0,0,1,.728,3.958,33.573,33.573,0,0,1,.242,4.04,33.5,33.5,0,0,1-.242,4.037,32.779,32.779,0,0,1-.728,3.963h0a1.149,1.149,0,0,0,.543,1.269l8.7,5.024a2.148,2.148,0,0,1,1,1.313,2.148,2.148,0,0,1-.209,1.634l0,0-6.131,10.618-.036.061a2.156,2.156,0,0,1-1.311,1,2.156,2.156,0,0,1-1.638-.209l-8.65-4.994a1.147,1.147,0,0,0-1.43.132,33.28,33.28,0,0,1-6.447,4.857,32.97,32.97,0,0,1-7.347,3.129,1.152,1.152,0,0,0-.885,1.12v10.049a2.154,2.154,0,0,1-.633,1.521,2.158,2.158,0,0,1-1.523.633h-12.329a2.148,2.148,0,0,1-1.521-.633,2.148,2.148,0,0,1-.634-1.521v-10.049a1.155,1.155,0,0,0-.839-1.107,32.8,32.8,0,0,1-7.395-3.142,33.2,33.2,0,0,1-6.444-4.857l0,0a1.15,1.15,0,0,0-1.367-.17l-8.65,5-.066.035a2.152,2.152,0,0,1-1.636.209,2.161,2.161,0,0,1-1.312-1h0l-6.162-10.675a2.155,2.155,0,0,1-.209-1.639,2.161,2.161,0,0,1,1-1.313v0l8.635-4.986a1.149,1.149,0,0,0,.608-1.3,33.273,33.273,0,0,1-.728-3.963,33.5,33.5,0,0,1-.244-4.037,33.543,33.543,0,0,1,.244-4.038,33.156,33.156,0,0,1,.728-3.959l0,0a1.147,1.147,0,0,0-.542-1.269l-8.639-4.988-.059-.038a2.149,2.149,0,0,1-1-1.312,2.158,2.158,0,0,1,.209-1.641l6.128-10.613.036-.059a2.159,2.159,0,0,1,1.313-1,2.164,2.164,0,0,1,1.588.183l.046.028,8.711,5.029a1.154,1.154,0,0,0,1.374-.165,33.248,33.248,0,0,1,6.446-4.861Zm16.553,9.962a18.693,18.693,0,0,1,13.254,5.49,18.69,18.69,0,0,1,5.49,13.256,18.683,18.683,0,0,1-5.49,13.254,18.688,18.688,0,0,1-13.254,5.492,18.688,18.688,0,0,1-13.256-5.492,18.682,18.682,0,0,1-5.49-13.254,18.689,18.689,0,0,1,5.49-13.256,18.693,18.693,0,0,1,13.256-5.49Zm-11.626,7.121a16.39,16.39,0,0,1,11.626-4.815,16.386,16.386,0,0,1,11.625,4.815,16.388,16.388,0,0,1,4.814,11.624,16.4,16.4,0,0,1-4.814,11.626,16.393,16.393,0,0,1-11.625,4.815,16.4,16.4,0,0,1-11.626-4.815,16.391,16.391,0,0,1-4.815-11.626A16.381,16.381,0,0,1,1290.488-262.553Z" transform="translate(197.504)" fill="#d1d4eb" fill-rule="evenodd"/>
      <path id="Path_4608" data-name="Path 4608" d="M1202.566-36.155a.911.911,0,0,1-.882-.944.914.914,0,0,1,.946-.88c.773.026,1.351-.654,1.949-1.354.906-1.063,1.837-2.158,3.64-2.158s2.733,1.1,3.638,2.158c.595.7,1.173,1.377,1.943,1.354h.076c.771.023,1.351-.656,1.944-1.354.906-1.063,1.839-2.158,3.638-2.158s2.735,1.1,3.64,2.158c.595.7,1.175,1.377,1.944,1.354h.077c.768.023,1.346-.656,1.943-1.354.9-1.063,1.837-2.158,3.638-2.158s2.732,1.1,3.638,2.158c.6.7,1.173,1.377,1.944,1.354h.076c.771.023,1.349-.656,1.944-1.354.9-1.063,1.837-2.158,3.64-2.158s2.734,1.1,3.638,2.158c.595.7,1.172,1.377,1.943,1.354h.076c.771.023,1.348-.656,1.944-1.354.906-1.063,1.837-2.158,3.64-2.158s2.734,1.1,3.638,2.158c.595.7,1.173,1.377,1.943,1.354h.076c.771.023,1.35-.656,1.944-1.354.9-1.063,1.837-2.158,3.638-2.158s2.733,1.1,3.64,2.158c.595.7,1.173,1.377,1.944,1.354h.076c.77.023,1.348-.656,1.943-1.354.906-1.063,1.839-2.158,3.64-2.158s2.733,1.1,3.638,2.158c.6.7,1.173,1.377,1.944,1.354h.076c.771.023,1.348-.656,1.944-1.354.9-1.063,1.837-2.158,3.638-2.158s2.735,1.1,3.64,2.158c.595.7,1.173,1.377,1.942,1.354h.077c.77.023,1.348-.656,1.943-1.354.906-1.063,1.837-2.158,3.64-2.158s2.733,1.1,3.638,2.158c.595.7,1.173,1.377,1.944,1.354h.076c.77.023,1.349-.656,1.942-1.354.906-1.063,1.839-2.158,3.64-2.158s2.733,1.1,3.638,2.158c.595.7,1.173,1.377,1.944,1.354h.076c.77.023,1.349-.656,1.942-1.354.906-1.063,1.841-2.158,3.64-2.158s2.735,1.1,3.638,2.158c.6.7,1.175,1.377,1.944,1.354h.076c.771.023,1.349-.656,1.946-1.354.9-1.063,1.835-2.158,3.638-2.158s2.734,1.1,3.638,2.158c.595.7,1.175,1.377,1.943,1.354h.078c.769.023,1.348-.656,1.944-1.354.9-1.063,1.837-2.158,3.638-2.158s2.733,1.1,3.638,2.158c.595.7,1.173,1.377,1.944,1.354h.076c.769.023,1.349-.656,1.942-1.354.906-1.063,1.839-2.158,3.64-2.158s2.734,1.1,3.638,2.158c.6.7,1.175,1.377,1.944,1.354h.078c.769.023,1.348-.656,1.942-1.354.9-1.063,1.839-2.158,3.638-2.158s2.735,1.1,3.638,2.158c.6.7,1.177,1.381,1.951,1.354a.911.911,0,0,1,.944.88.911.911,0,0,1-.88.944c-1.651.059-2.514-.954-3.4-2-.633-.743-1.283-1.509-2.251-1.509s-1.618.766-2.249,1.509c-.883,1.036-1.74,2.043-3.371,2-1.631.044-2.486-.962-3.371-2-.629-.743-1.282-1.509-2.249-1.509s-1.616.766-2.251,1.509c-.882,1.036-1.74,2.043-3.37,2-1.631.044-2.488-.962-3.371-2-.633-.743-1.282-1.509-2.249-1.509s-1.618.766-2.249,1.509c-.883,1.036-1.741,2.043-3.371,2-1.63.044-2.488-.962-3.371-2-.633-.743-1.283-1.509-2.249-1.509s-1.619.766-2.25,1.509c-.883,1.036-1.74,2.043-3.369,2-1.633.044-2.49-.962-3.371-2-.633-.743-1.284-1.509-2.251-1.509s-1.618.766-2.251,1.509c-.882,1.036-1.738,2.043-3.369,2-1.631.044-2.488-.962-3.371-2-.631-.743-1.282-1.509-2.249-1.509s-1.618.766-2.251,1.509c-.881,1.036-1.74,2.043-3.369,2-1.63.044-2.488-.962-3.371-2-.633-.743-1.283-1.509-2.249-1.509s-1.62.766-2.249,1.509c-.885,1.036-1.742,2.043-3.371,2-1.633.044-2.49-.962-3.371-2-.633-.743-1.284-1.509-2.251-1.509s-1.618.766-2.251,1.509c-.881,1.036-1.738,2.043-3.369,2-1.631.044-2.488-.962-3.37-2-.633-.743-1.285-1.509-2.251-1.509s-1.618.766-2.251,1.509c-.881,1.036-1.74,2.043-3.369,2-1.631.044-2.49-.962-3.371-2-.633-.743-1.283-1.509-2.251-1.509s-1.616.766-2.249,1.509c-.882,1.036-1.74,2.043-3.37,2-1.631.044-2.49-.962-3.371-2-.633-.743-1.282-1.509-2.249-1.509s-1.62.766-2.251,1.509c-.883,1.036-1.74,2.043-3.37,2-1.633.044-2.488-.962-3.371-2-.633-.743-1.285-1.509-2.249-1.509s-1.62.766-2.252,1.509c-.882,1.036-1.738,2.043-3.371,2-1.63.044-2.486-.962-3.369-2-.631-.743-1.284-1.509-2.249-1.509s-1.618.766-2.249,1.509c-.883,1.036-1.742,2.043-3.371,2-1.631.044-2.488-.962-3.371-2-.633-.743-1.284-1.509-2.251-1.509s-1.616.766-2.249,1.509c-.881,1.036-1.74,2.043-3.369,2-1.631.044-2.49-.962-3.371-2-.633-.743-1.284-1.509-2.249-1.509s-1.62.766-2.251,1.509C1205.078-37.109,1204.217-36.1,1202.566-36.155Z" transform="translate(173.853 166.389)" fill="#e88397" fill-rule="evenodd"/>
      <path id="Path_4609" data-name="Path 4609" d="M1436.59-12.218a.916.916,0,0,1-1.3,0,.913.913,0,0,1,0-1.3l5.136-5.136-5.136-5.136a.913.913,0,0,1,0-1.3.913.913,0,0,1,1.3,0l5.783,5.782a.918.918,0,0,1,0,1.3l-5.783,5.783Zm-9.032-11.567,5.136,5.136-5.136,5.136a.916.916,0,0,0,0,1.3.918.918,0,0,0,1.3,0L1434.636-18a.918.918,0,0,0,0-1.3l-5.782-5.782a.915.915,0,0,0-1.3,0,.916.916,0,0,0,0,1.3ZM1459.8-12.218a.916.916,0,0,1-1.3,0,.913.913,0,0,1,0-1.3l5.134-5.136-5.134-5.136a.913.913,0,0,1,0-1.3.913.913,0,0,1,1.3,0l5.783,5.782a.918.918,0,0,1,0,1.3l-5.783,5.783Zm-7.736,0L1457.846-18a.918.918,0,0,0,0-1.3l-5.781-5.782a.917.917,0,0,0-1.3,0,.919.919,0,0,0,0,1.3l5.138,5.136-5.138,5.136a.919.919,0,0,0,0,1.3.92.92,0,0,0,1.3,0Zm-7.739,0L1450.109-18a.915.915,0,0,0,0-1.3l-5.783-5.782a.913.913,0,0,0-1.295,0,.916.916,0,0,0,0,1.3l5.136,5.136-5.136,5.136a.916.916,0,0,0,0,1.3A.916.916,0,0,0,1444.326-12.218Z" transform="translate(319.974 176.845)" fill="#e88397" fill-rule="evenodd"/>
      <path id="Path_4610" data-name="Path 4610" d="M1153.667-278.4a.919.919,0,0,1-1.295,0,.918.918,0,0,1,0-1.3l5.136-5.136-5.136-5.136a.916.916,0,0,1,0-1.3.916.916,0,0,1,1.295,0l5.783,5.783a.915.915,0,0,1,0,1.3l-5.783,5.783Zm-9.031-11.568,5.136,5.136-5.136,5.136a.915.915,0,0,0,0,1.3.919.919,0,0,0,1.295,0l5.783-5.783a.921.921,0,0,0,0-1.3l-5.783-5.783a.916.916,0,0,0-1.295,0,.913.913,0,0,0,0,1.3Zm32.24,11.568a.919.919,0,0,1-1.3,0,.918.918,0,0,1,0-1.3l5.136-5.136-5.136-5.136a.916.916,0,0,1,0-1.3.916.916,0,0,1,1.3,0l5.785,5.783a.915.915,0,0,1,0,1.3l-5.785,5.783Zm-7.736,0,5.783-5.783a.918.918,0,0,0,0-1.3l-5.783-5.783a.916.916,0,0,0-1.3,0,.916.916,0,0,0,0,1.3l5.136,5.136-5.136,5.136a.918.918,0,0,0,0,1.3.919.919,0,0,0,1.3,0Zm-7.737,0,5.785-5.783a.918.918,0,0,0,0-1.3l-5.785-5.783a.916.916,0,0,0-1.3,0,.916.916,0,0,0,0,1.3l5.136,5.136-5.136,5.136a.918.918,0,0,0,0,1.3A.919.919,0,0,0,1161.4-278.4Z" transform="translate(136.73 4.445)" fill="#e88397" fill-rule="evenodd"/>
      <path id="Path_4611" data-name="Path 4611" d="M1314.064-150.459a.918.918,0,0,1,.948.88.916.916,0,0,1-.882.946c-1.653.059-2.514-.954-3.4-2-.633-.741-1.283-1.508-2.251-1.508s-1.618.766-2.251,1.508c-.883,1.038-1.738,2.043-3.37,2-1.631.043-2.488-.962-3.37-2-.633-.741-1.285-1.508-2.252-1.508s-1.616.766-2.249,1.508c-.883,1.038-1.739,2.043-3.371,2-1.629.043-2.486-.962-3.369-2-.631-.741-1.283-1.508-2.251-1.508s-1.616.766-2.249,1.508c-.882,1.038-1.74,2.043-3.371,2-1.629.043-2.488-.962-3.369-2-.633-.741-1.283-1.508-2.251-1.508s-1.618.766-2.249,1.508c-.883,1.038-1.74,2.043-3.371,2-1.63.043-2.488-.962-3.371-2-.631-.741-1.282-1.508-2.249-1.508s-1.618.766-2.251,1.508c-.888,1.045-1.75,2.058-3.4,2a.913.913,0,0,1-.88-.946.914.914,0,0,1,.944-.88c.774.028,1.353-.652,1.951-1.354.9-1.063,1.837-2.158,3.638-2.158s2.733,1.1,3.638,2.158c.595.7,1.175,1.379,1.944,1.354h.076c.771.025,1.349-.654,1.944-1.354.906-1.063,1.837-2.158,3.638-2.158s2.734,1.1,3.64,2.158c.595.7,1.173,1.379,1.944,1.354h.074c.771.025,1.349-.654,1.944-1.354.9-1.063,1.837-2.158,3.638-2.158s2.734,1.1,3.64,2.158c.595.7,1.173,1.379,1.944,1.354h.076c.771.025,1.348-.654,1.942-1.354.9-1.063,1.839-2.158,3.638-2.158s2.735,1.1,3.64,2.158c.6.7,1.173,1.379,1.944,1.354h.076c.771.025,1.348-.654,1.944-1.354.9-1.063,1.837-2.158,3.638-2.158s2.733,1.1,3.64,2.158C1312.713-151.112,1313.293-150.431,1314.064-150.459Z" transform="translate(209.667 93.538)" fill="#e88397" fill-rule="evenodd"/>
      <path id="Path_4612" data-name="Path 4612" d="M1234.161-93.442a5.114,5.114,0,0,1,3.63,1.5h0a5.123,5.123,0,0,1,1.5,3.633,5.123,5.123,0,0,1-1.5,3.633l-.055.049a5.121,5.121,0,0,1-3.579,1.455,5.123,5.123,0,0,1-3.633-1.5,5.123,5.123,0,0,1-1.5-3.633,5.123,5.123,0,0,1,1.5-3.633,5.116,5.116,0,0,1,3.633-1.5Zm2.34,2.8a3.3,3.3,0,0,0-2.34-.966,3.3,3.3,0,0,0-2.338.967,3.3,3.3,0,0,0-.969,2.338,3.3,3.3,0,0,0,.969,2.338,3.3,3.3,0,0,0,2.338.967,3.3,3.3,0,0,0,2.3-.926l.041-.041a3.3,3.3,0,0,0,.967-2.338,3.3,3.3,0,0,0-.967-2.338Z" transform="translate(191.561 132.742)" fill="#e88397" fill-rule="evenodd"/>
      <path id="Path_4613" data-name="Path 4613" d="M942.162-72.781a5.114,5.114,0,0,1,3.628,1.5h0a5.13,5.13,0,0,1,1.5,3.633,5.13,5.13,0,0,1-1.5,3.633l-.056.049a5.11,5.11,0,0,1-3.577,1.455,5.113,5.113,0,0,1-3.633-1.5,5.118,5.118,0,0,1-1.506-3.633,5.118,5.118,0,0,1,1.506-3.633,5.12,5.12,0,0,1,3.633-1.5Zm2.338,2.8a3.3,3.3,0,0,0-2.338-.966,3.3,3.3,0,0,0-2.338.967,3.3,3.3,0,0,0-.969,2.338,3.294,3.294,0,0,0,.969,2.338,3.3,3.3,0,0,0,2.338.967,3.3,3.3,0,0,0,2.3-.926l.041-.041a3.3,3.3,0,0,0,.967-2.338,3.3,3.3,0,0,0-.967-2.338Z" transform="translate(2.437 146.124)" fill="#e88397" fill-rule="evenodd"/>
      <path id="Path_4614" data-name="Path 4614" d="M940.116-164.072a.916.916,0,0,1,.916-.916.916.916,0,0,1,.916.916v2.954H944.9a.917.917,0,0,1,.918.916.915.915,0,0,1-.918.916h-2.953v2.954a.916.916,0,0,1-.916.916.916.916,0,0,1-.916-.916v-2.954h-2.954a.915.915,0,0,1-.918-.916.917.917,0,0,1,.918-.916h2.954Z" transform="translate(1.933 86.403)" fill="#e88397" fill-rule="evenodd"/>
      <path id="Path_4615" data-name="Path 4615" d="M1433.551-75.268a.916.916,0,0,1,.914-.914.916.916,0,0,1,.918.914v2.954h2.953a.917.917,0,0,1,.918.916.918.918,0,0,1-.918.916h-2.953v2.953a.917.917,0,0,1-.918.918.916.916,0,0,1-.914-.918v-2.953H1430.6a.917.917,0,0,1-.916-.916.916.916,0,0,1,.916-.916h2.954Z" transform="translate(321.523 143.921)" fill="#e88397" fill-rule="evenodd"/>
      <path id="Path_4616" data-name="Path 4616" d="M1104.713-293.6a.916.916,0,0,1,.916-.914.916.916,0,0,1,.916.914v2.953h2.955a.918.918,0,0,1,.916.918.916.916,0,0,1-.916.916h-2.955v2.954a.916.916,0,0,1-.916.916.916.916,0,0,1-.916-.916v-2.954h-2.953a.917.917,0,0,1-.918-.916.918.918,0,0,1,.918-.918h2.953Z" transform="translate(108.54 2.509)" fill="#e88397" fill-rule="evenodd"/>
      <path id="Path_4617" data-name="Path 4617" d="M1297.345-112.219a.915.915,0,0,1,.915-.916.916.916,0,0,1,.918.916v2.954h2.953a.916.916,0,0,1,.916.916.916.916,0,0,1-.916.914h-2.953v2.954a.916.916,0,0,1-.918.916.915.915,0,0,1-.915-.916v-2.954h-2.954a.916.916,0,0,1-.916-.914.916.916,0,0,1,.916-.916h2.954Z" transform="translate(233.304 119.988)" fill="#e88397" fill-rule="evenodd"/>
      <path id="Path_4618" data-name="Path 4618" d="M1058.493-23.517A5.04,5.04,0,0,0,1054.926-25a5.037,5.037,0,0,0-3.566,1.483l-.031.03a5.039,5.039,0,0,0-1.455,3.538v3.656a.265.265,0,0,0,.077.185.262.262,0,0,0,.186.077h9.576a.252.252,0,0,0,.185-.076l0,0a.26.26,0,0,0,.074-.185v-3.218l0-.016,0-.025v-.4a5.043,5.043,0,0,0-1.483-3.567Zm-.5-10.786a4.326,4.326,0,0,0-3.066-1.269,4.329,4.329,0,0,0-3.066,1.269,4.331,4.331,0,0,0-1.27,3.068,4.33,4.33,0,0,0,1.27,3.066l.04.041a4.322,4.322,0,0,0,3.027,1.229,4.322,4.322,0,0,0,3.066-1.267l0,0a4.316,4.316,0,0,0,1.269-3.066A4.309,4.309,0,0,0,1057.992-34.3Z" transform="translate(75.529 170.224)" fill="#0a1432" fill-rule="evenodd"/>
      <path id="Path_4619" data-name="Path 4619" d="M1034.861-27.214l1.737-1-1.1-1.906-1.781,1.028a.768.768,0,0,1-.949-.138,6.526,6.526,0,0,0-1.368-1.048,6.473,6.473,0,0,0-1.6-.662.775.775,0,0,1-.578-.748v-2.053h-2.2v2.053a.775.775,0,0,1-.626.761,6.6,6.6,0,0,0-1.555.649,6.575,6.575,0,0,0-1.381,1.063.773.773,0,0,1-.936.124l-1.781-1.028-1.1,1.906,1.779,1.028a.776.776,0,0,1,.361.872h0a6.268,6.268,0,0,0-.175.85,6.636,6.636,0,0,0-.056.875,6.629,6.629,0,0,0,.056.873,6.342,6.342,0,0,0,.175.852.776.776,0,0,1-.425.9l-1.719.994,1.1,1.906,1.781-1.028a.773.773,0,0,1,.949.138,6.743,6.743,0,0,0,1.368,1.051,6.478,6.478,0,0,0,1.6.659.776.776,0,0,1,.577.748v2.053h2.2v-2.053a.778.778,0,0,1,.628-.761,6.434,6.434,0,0,0,1.555-.648,6.638,6.638,0,0,0,1.381-1.064.776.776,0,0,1,.936-.124l1.781,1.028,1.1-1.906-1.779-1.027a.771.771,0,0,1-.359-.872h-.005a6.6,6.6,0,0,0,.176-.852,6.945,6.945,0,0,0,.054-.873,6.952,6.952,0,0,0-.054-.875,6.754,6.754,0,0,0-.175-.849.779.779,0,0,1,.406-.9Zm-6.742-1.519a4.129,4.129,0,0,1,2.88,1.17l.048.043a4.131,4.131,0,0,1,1.213,2.93,4.131,4.131,0,0,1-1.213,2.925l0,0a4.125,4.125,0,0,1-2.925,1.213,4.121,4.121,0,0,1-2.926-1.214,4.133,4.133,0,0,1-1.214-2.926,4.131,4.131,0,0,1,1.213-2.93A4.134,4.134,0,0,1,1028.119-28.733Z" transform="translate(55.947 171.408)" fill="#0a1432" fill-rule="evenodd"/>
      <path id="Path_4620" data-name="Path 4620" d="M1075.739-32.295v14.669a10.951,10.951,0,0,1,1.61-1.471,6.8,6.8,0,0,1,4.04-1.435h12.651a1.083,1.083,0,0,0,.77-.321,1.086,1.086,0,0,0,.322-.769V-32.295a1.071,1.071,0,0,0-.084-.415,1.037,1.037,0,0,0-.238-.351,1.085,1.085,0,0,0-.77-.323h-17.21a1.093,1.093,0,0,0-.771.32,1.087,1.087,0,0,0-.32.769Zm12.621,2.928a.431.431,0,0,1,.432.433.431.431,0,0,1-.432.43h-8.252a.431.431,0,0,1-.432-.43.431.431,0,0,1,.432-.433Zm1.2.433a.431.431,0,0,1,.432-.433h.763a.432.432,0,0,1,.432.433.432.432,0,0,1-.432.43h-.763a.431.431,0,0,1-.432-.43ZM1081.3-25.6a.432.432,0,0,1-.432.432h-.763a.431.431,0,0,1-.432-.432.432.432,0,0,1,.432-.433h.763a.433.433,0,0,1,.432.433Zm1.2-.433h7.016a.435.435,0,0,1,.433.433.433.433,0,0,1-.433.432H1082.5a.432.432,0,0,1-.432-.432A.433.433,0,0,1,1082.5-26.035Z" transform="translate(92.281 171.641)" fill="#0a1432" fill-rule="evenodd"/>
      <path id="Path_4621" data-name="Path 4621" d="M1187.471-152.783Zm2.9-11.051a5.572,5.572,0,0,1,3.949-1.634,5.561,5.561,0,0,1,3.946,1.634,5.561,5.561,0,0,1,1.636,3.946,5.56,5.56,0,0,1-1.636,3.949,5.561,5.561,0,0,1-3.946,1.635,5.572,5.572,0,0,1-3.949-1.635,5.566,5.566,0,0,1-1.635-3.949,5.567,5.567,0,0,1,1.635-3.946Zm1.208-5.535a9.73,9.73,0,0,0-2.188.933,9.821,9.821,0,0,0-1.92,1.447.345.345,0,0,1-.41.049l-2.595-1.5-.013-.008a.635.635,0,0,0-.473-.054.641.641,0,0,0-.39.3l-.012.018-1.826,3.16a.656.656,0,0,0-.062.489.638.638,0,0,0,.3.391l.017.012,2.574,1.486a.338.338,0,0,1,.161.377h0a10.089,10.089,0,0,0-.216,1.18,9.929,9.929,0,0,0-.073,1.2,9.963,9.963,0,0,0,.073,1.2,10.153,10.153,0,0,0,.216,1.18.343.343,0,0,1-.179.389l-2.572,1.485h0a.646.646,0,0,0-.3.392.651.651,0,0,0,.063.488l1.836,3.18,0,0a.644.644,0,0,0,.39.3.648.648,0,0,0,.486-.063l.02-.01,2.577-1.488a.343.343,0,0,1,.409.049,9.768,9.768,0,0,0,1.92,1.447,9.82,9.82,0,0,0,2.2.936.35.35,0,0,1,.249.33v2.994a.634.634,0,0,0,.188.451.643.643,0,0,0,.455.189h3.671a.64.64,0,0,0,.453-.189.636.636,0,0,0,.189-.451v-2.994a.346.346,0,0,1,.263-.334,9.752,9.752,0,0,0,2.188-.931,9.812,9.812,0,0,0,1.92-1.447.344.344,0,0,1,.427-.04l2.575,1.488a.645.645,0,0,0,.488.063.653.653,0,0,0,.392-.3l.01-.016,1.825-3.162h0a.638.638,0,0,0,.063-.488.643.643,0,0,0-.3-.392l-2.592-1.5a.344.344,0,0,1-.162-.377h0a9.757,9.757,0,0,0,.216-1.18,9.627,9.627,0,0,0,.073-1.2,9.593,9.593,0,0,0-.073-1.2,9.7,9.7,0,0,0-.216-1.18.341.341,0,0,1,.181-.389l2.572-1.486a.636.636,0,0,0,.3-.391.637.637,0,0,0-.063-.488l-.01-.02-1.825-3.162v0a.65.65,0,0,0-.392-.3.631.631,0,0,0-.488.063h0l-2.594,1.5a.344.344,0,0,1-.417-.056,9.843,9.843,0,0,0-1.911-1.44,9.855,9.855,0,0,0-2.2-.938.34.34,0,0,1-.249-.33V-172.7a.64.64,0,0,0-.189-.453.64.64,0,0,0-.453-.189h-3.671a.643.643,0,0,0-.455.189.638.638,0,0,0-.188.453v2.992A.345.345,0,0,1,1191.581-169.369Z" transform="translate(160.891 80.995)" fill="#f6cccf" fill-rule="evenodd"/>
      <path id="Path_4622" data-name="Path 4622" d="M1219.887-276.23Zm8.225-19.431h-3.577a.283.283,0,0,0-.2.084l-.02.018a.279.279,0,0,0-.064.181v2.915a.675.675,0,0,1-.521.657,9.31,9.31,0,0,0-2.04.87,9.4,9.4,0,0,0-1.8,1.359.669.669,0,0,1-.837.077l-2.491-1.438a.291.291,0,0,0-.219-.025.28.28,0,0,0-.173.129l-1.758,3.042a.467.467,0,0,1-.046.086.294.294,0,0,0-.011.188.294.294,0,0,0,.11.16.616.616,0,0,1,.074.046l2.47,1.427a.671.671,0,0,1,.318.743h0a9.1,9.1,0,0,0-.2,1.109,9.05,9.05,0,0,0-.068,1.13,9.078,9.078,0,0,0,.068,1.132,8.835,8.835,0,0,0,.2,1.107.674.674,0,0,1-.357.764l-2.486,1.435v0a.293.293,0,0,0-.13.175.276.276,0,0,0,.026.219l1.788,3.1a.286.286,0,0,0,.173.129.292.292,0,0,0,.219-.026l2.526-1.46a.678.678,0,0,1,.8.1,9.335,9.335,0,0,0,1.8,1.359,9.2,9.2,0,0,0,2.068.878.676.676,0,0,1,.493.649v2.915a.283.283,0,0,0,.084.2l.017.018a.287.287,0,0,0,.183.064h3.577a.29.29,0,0,0,.2-.082.288.288,0,0,0,.083-.2v-2.915a.676.676,0,0,1,.521-.657,9.11,9.11,0,0,0,2.038-.87,9.25,9.25,0,0,0,1.806-1.359.674.674,0,0,1,.8-.1l2.544,1.47a.279.279,0,0,0,.2.016.293.293,0,0,0,.175-.129l1.788-3.1a.292.292,0,0,0,.025-.219.283.283,0,0,0-.129-.175l-2.524-1.457a.676.676,0,0,1-.318-.743l0,0a9.846,9.846,0,0,0,.2-1.107,9.783,9.783,0,0,0,.068-1.132,9.753,9.753,0,0,0-.068-1.13,9.8,9.8,0,0,0-.2-1.109.673.673,0,0,1,.356-.765l2.486-1.435v0a.289.289,0,0,0,.13-.175.288.288,0,0,0-.025-.218l-1.788-3.1a.287.287,0,0,0-.175-.129.286.286,0,0,0-.217.025h0l-2.528,1.46a.674.674,0,0,1-.819-.112,9.371,9.371,0,0,0-1.791-1.346,9.213,9.213,0,0,0-2.068-.878.677.677,0,0,1-.491-.649v-2.915a.289.289,0,0,0-.081-.2l0,0a.292.292,0,0,0-.2-.084Zm-5.875,8.672a5.762,5.762,0,0,1,4.086-1.694,5.762,5.762,0,0,1,4.086,1.694,5.755,5.755,0,0,1,1.692,4.086,5.762,5.762,0,0,1-1.692,4.088,5.767,5.767,0,0,1-4.086,1.692,5.767,5.767,0,0,1-4.086-1.692,5.762,5.762,0,0,1-1.692-4.088A5.755,5.755,0,0,1,1222.237-286.989Z" transform="translate(182.051 1.769)" fill="#f6cccf" fill-rule="evenodd"/>
      <g id="Group_10814" data-name="Group 10814" transform="translate(1055.124 18.853)">
        <rect id="Rectangle_3021" data-name="Rectangle 3021" width="106.86" height="80.292" rx="3.692" transform="translate(0 1.781)" fill="#d1d4eb"/>
        <path id="Rectangle_3022" data-name="Rectangle 3022" d="M3.692,0h99.476a3.693,3.693,0,0,1,3.693,3.693V76.6a3.692,3.692,0,0,1-3.692,3.692H3.693A3.693,3.693,0,0,1,0,76.6V3.692A3.692,3.692,0,0,1,3.692,0Z" transform="translate(2.225)" fill="#fff"/>
        <path id="Path_4623" data-name="Path 4623" d="M1014.657-105.851h94.691a6.1,6.1,0,0,1,6.085,6.083v15.287h-106.86V-99.768A6.1,6.1,0,0,1,1014.657-105.851Z" transform="translate(-1006.346 105.852)" fill-rule="evenodd" fill="url(#linear-gradient-18)"/>
        <g id="Group_10812" data-name="Group 10812" transform="translate(11.278 8.831)">
          <path id="Path_4624" data-name="Path 4624" d="M1015.921-96.781a1.86,1.86,0,0,0,1.857-1.855,1.859,1.859,0,0,0-1.857-1.855,1.858,1.858,0,0,0-1.855,1.855A1.859,1.859,0,0,0,1015.921-96.781Z" transform="translate(-1014.066 100.492)" fill="#fff" fill-rule="evenodd"/>
          <path id="Path_4625" data-name="Path 4625" d="M1020.425-96.781a1.859,1.859,0,0,0,1.855-1.855,1.858,1.858,0,0,0-1.855-1.855,1.858,1.858,0,0,0-1.855,1.855A1.859,1.859,0,0,0,1020.425-96.781Z" transform="translate(-1011.149 100.492)" fill="#fff" fill-rule="evenodd"/>
          <path id="Path_4626" data-name="Path 4626" d="M1024.929-96.781a1.859,1.859,0,0,0,1.855-1.855,1.858,1.858,0,0,0-1.855-1.855,1.857,1.857,0,0,0-1.855,1.855A1.858,1.858,0,0,0,1024.929-96.781Z" transform="translate(-1008.232 100.492)" fill="#fff" fill-rule="evenodd"/>
        </g>
        <g id="Group_10813" data-name="Group 10813" transform="translate(43 32.981)">
          <path id="Path_4627" data-name="Path 4627" d="M1033.88-80.481a.56.56,0,0,1-.562-.56.56.56,0,0,1,.562-.56h57.138a.56.56,0,0,1,.562.56.56.56,0,0,1-.562.56Z" transform="translate(-1033.318 88.577)" fill="#d1d4eb" fill-rule="evenodd"/>
          <path id="Path_4628" data-name="Path 4628" d="M1033.88-76.244a.563.563,0,0,1-.562-.562.561.561,0,0,1,.562-.562h57.138a.56.56,0,0,1,.562.562.563.563,0,0,1-.562.562Z" transform="translate(-1033.318 91.319)" fill="#d1d4eb" fill-rule="evenodd"/>
          <path id="Path_4629" data-name="Path 4629" d="M1033.88-72.012a.562.562,0,0,1-.562-.562.561.561,0,0,1,.562-.56h57.138a.561.561,0,0,1,.562.56.561.561,0,0,1-.562.562Z" transform="translate(-1033.318 94.061)" fill="#d1d4eb" fill-rule="evenodd"/>
          <path id="Path_4630" data-name="Path 4630" d="M1033.88-67.78a.56.56,0,0,1-.562-.56.56.56,0,0,1,.562-.56h38.365a.561.561,0,0,1,.562.56.561.561,0,0,1-.562.56Z" transform="translate(-1033.318 96.803)" fill="#d1d4eb" fill-rule="evenodd"/>
          <path id="Path_4631" data-name="Path 4631" d="M1033.88-84.713a.561.561,0,0,1-.562-.56.562.562,0,0,1,.562-.562h57.138a.562.562,0,0,1,.562.562.561.561,0,0,1-.562.56Z" transform="translate(-1033.318 85.835)" fill="#d1d4eb" fill-rule="evenodd"/>
        </g>
        <rect id="Rectangle_3023" data-name="Rectangle 3023" width="28.201" height="21.859" rx="1.396" transform="translate(9.793 29.271)" fill="#e74569"/>
        <rect id="Rectangle_3024" data-name="Rectangle 3024" width="28.201" height="9.944" rx="1.172" transform="translate(9.793 55.284)" fill="#e74569"/>
      </g>
      <path id="Path_4632" data-name="Path 4632" d="M1386.587-7.754a35.339,35.339,0,0,1-7.08-3.116,35.473,35.473,0,0,1-6.255-4.6l-7.97,4.6-.076.041a4.439,4.439,0,0,1-3.305.4,4.454,4.454,0,0,1-2.709-2.073l-.036-.064-6.128-10.619a4.44,4.44,0,0,1-.445-3.376,4.455,4.455,0,0,1,2.073-2.709l.064-.033,7.9-4.562q-.371-1.678-.582-3.4a35.556,35.556,0,0,1-.263-4.31,35.508,35.508,0,0,1,.263-4.309c.138-1.145.334-2.28.583-3.4l-7.965-4.6h0a4.456,4.456,0,0,1-2.073-2.707,4.445,4.445,0,0,1,.445-3.378l6.111-10.586a1.23,1.23,0,0,1,.1-.175,4.452,4.452,0,0,1,2.663-2,4.451,4.451,0,0,1,3.3.4,1.222,1.222,0,0,1,.176.1l7.876,4.546a35.718,35.718,0,0,1,6.258-4.6,35.241,35.241,0,0,1,7.08-3.114v-9.192a4.453,4.453,0,0,1,1.308-3.15,4.449,4.449,0,0,1,3.154-1.31h12.328a4.438,4.438,0,0,1,3.15,1.31,4.441,4.441,0,0,1,1.31,3.15v9.192a35.106,35.106,0,0,1,7.08,3.114,35.558,35.558,0,0,1,6.256,4.6l7.878-4.548a1.177,1.177,0,0,1,.2-.115,4.45,4.45,0,0,1,3.272-.384,4.446,4.446,0,0,1,2.659,2,1.023,1.023,0,0,1,.1.173l6.111,10.585,0,0a4.45,4.45,0,0,1,.443,3.383,4.444,4.444,0,0,1-2.078,2.707l-7.961,4.6a34.416,34.416,0,0,1,.585,3.4,35.489,35.489,0,0,1,.262,4.309,35.536,35.536,0,0,1-.262,4.31,34.415,34.415,0,0,1-.585,3.4l7.961,4.6a4.442,4.442,0,0,1,2.078,2.709,4.445,4.445,0,0,1-.443,3.381l-.038.061L1435.23-12.5l0,0a4.442,4.442,0,0,1-2.707,2.073,4.452,4.452,0,0,1-3.378-.443l0,0v0l-7.97-4.6a35.4,35.4,0,0,1-6.256,4.6,35.239,35.239,0,0,1-7.078,3.116V1.439a4.441,4.441,0,0,1-1.31,3.15,4.444,4.444,0,0,1-3.15,1.31h-12.328a4.47,4.47,0,0,1-4.462-4.46V-7.754Zm-36.394-74.182a18.155,18.155,0,0,1-3.211-1.458,18.393,18.393,0,0,1-2.879-2.065l-3.58,2.066a2.767,2.767,0,0,1-2.109.277,2.783,2.783,0,0,1-1.692-1.3L1333.67-89.7a2.763,2.763,0,0,1-.275-2.1,2.773,2.773,0,0,1,1.295-1.692l.064-.035,3.513-2.027q-.131-.657-.212-1.321a18.034,18.034,0,0,1-.134-2.2,18.054,18.054,0,0,1,.134-2.2c.054-.442.125-.883.212-1.321l-3.572-2.061,15.5,22.728Zm-2.06-3.449a15.8,15.8,0,0,0,3.478,1.483,1.154,1.154,0,0,1,.887,1.122v4.969a.484.484,0,0,0,.112.311l.03.028a.48.48,0,0,0,.341.143h6.1a.481.481,0,0,0,.341-.143l0,0a.491.491,0,0,0,.142-.343v-4.969a1.15,1.15,0,0,1,.835-1.107,15.714,15.714,0,0,0,3.526-1.5,15.9,15.9,0,0,0,3.053-2.3,1.149,1.149,0,0,1,1.4-.191l4.309,2.488,0,0a.5.5,0,0,0,.369.043.484.484,0,0,0,.3-.221l3.05-5.281a.509.509,0,0,0,.044-.374.5.5,0,0,0-.226-.295v0l-4.238-2.448a1.149,1.149,0,0,1-.608-1.307,15.633,15.633,0,0,0,.346-1.887,16.12,16.12,0,0,0,.115-1.929,16.12,16.12,0,0,0-.115-1.929,15.78,15.78,0,0,0-.346-1.888h0a1.147,1.147,0,0,1,.544-1.27l4.3-2.485a.487.487,0,0,0,.221-.295.509.509,0,0,0-.044-.374l-3.05-5.281a.484.484,0,0,0-.3-.221.507.507,0,0,0-.338.026l-4.338,2.5a1.149,1.149,0,0,1-1.373-.165,15.82,15.82,0,0,0-3.078-2.318,15.684,15.684,0,0,0-3.475-1.485,1.151,1.151,0,0,1-.886-1.12v-4.971a.481.481,0,0,0-.143-.339.481.481,0,0,0-.341-.143h-6.1a.486.486,0,0,0-.31.11l-.031.033a.479.479,0,0,0-.142.339v4.971a1.153,1.153,0,0,1-.839,1.106,15.8,15.8,0,0,0-3.526,1.5,15.754,15.754,0,0,0-3.076,2.318v0a1.145,1.145,0,0,1-1.368.166l-4.309-2.485a.492.492,0,0,0-.372-.046.481.481,0,0,0-.3.221l-3.048,5.281a.494.494,0,0,0-.046.374.488.488,0,0,0,.224.295v0l4.238,2.448a1.148,1.148,0,0,1,.61,1.3,15.447,15.447,0,0,0-.346,1.888,15.77,15.77,0,0,0-.117,1.929,15.77,15.77,0,0,0,.117,1.929,15.306,15.306,0,0,0,.346,1.887l0,0a1.15,1.15,0,0,1-.544,1.27l-4.208,2.43a1.13,1.13,0,0,1-.128.077.5.5,0,0,0-.188.272.5.5,0,0,0,.02.321,1.148,1.148,0,0,1,.079.145l3,5.189a.481.481,0,0,0,.3.221.491.491,0,0,0,.372-.044l4.246-2.452a1.149,1.149,0,0,1,1.43.13,15.828,15.828,0,0,0,3.076,2.32Zm-13.443-19.281,15.5,22.73v4.126a2.784,2.784,0,0,0,.743,1.89l.074.081a2.79,2.79,0,0,0,1.971.819h6.1a2.787,2.787,0,0,0,1.971-.819l0,0,0,0a2.777,2.777,0,0,0,.817-1.966v-4.126a18.109,18.109,0,0,0,3.21-1.458,18.336,18.336,0,0,0,2.878-2.063l3.575,2.065,0,0,0,0a2.773,2.773,0,0,0,2.111.277,2.781,2.781,0,0,0,1.692-1.3l3.048-5.282a2.761,2.761,0,0,0,.279-2.109,2.766,2.766,0,0,0-1.295-1.692l0,0L1373.8-95.56q.129-.657.211-1.321a18.034,18.034,0,0,0,.134-2.2,18.054,18.054,0,0,0-.134-2.2c-.054-.442-.125-.883-.212-1.321l3.572-2.061a2.772,2.772,0,0,0,1.3-1.692,2.761,2.761,0,0,0-.279-2.109l-3.048-5.282a2.781,2.781,0,0,0-1.692-1.3,2.769,2.769,0,0,0-2.032.234c-.028.013-.056.028-.084.044l-3.575,2.065a18.036,18.036,0,0,0-2.878-2.063,18,18,0,0,0-3.21-1.46v-4.126a2.776,2.776,0,0,0-.817-1.969,2.78,2.78,0,0,0-1.971-.819h-6.1a2.763,2.763,0,0,0-1.888.745.81.81,0,0,0-.083.074,2.775,2.775,0,0,0-.817,1.969v4.126a18.043,18.043,0,0,0-3.211,1.46,18.276,18.276,0,0,0-2.879,2.063l-3.58-2.065a2.753,2.753,0,0,0-2.109-.278,2.783,2.783,0,0,0-1.692,1.3l-3.055,5.294a2.753,2.753,0,0,0-.272,2.1,2.765,2.765,0,0,0,1.295,1.691Zm0,0,0,0,0,0Zm21.339,15.44A9.832,9.832,0,0,0,1363-92.112a9.831,9.831,0,0,0,2.885-6.97A9.827,9.827,0,0,0,1363-106.05a9.833,9.833,0,0,0-6.969-2.887,9.823,9.823,0,0,0-6.967,2.887,9.824,9.824,0,0,0-2.887,6.968,9.828,9.828,0,0,0,2.887,6.97,9.822,9.822,0,0,0,6.967,2.885Zm-5.339-4.516a7.525,7.525,0,0,0,5.339,2.211,7.525,7.525,0,0,0,5.338-2.211,7.532,7.532,0,0,0,2.211-5.338,7.532,7.532,0,0,0-2.211-5.338,7.525,7.525,0,0,0-5.338-2.211,7.525,7.525,0,0,0-5.339,2.211,7.524,7.524,0,0,0-2.209,5.338,7.524,7.524,0,0,0,2.209,5.338Zm46.521,31.169a20.938,20.938,0,0,0-14.855,6.154,20.944,20.944,0,0,0-6.154,14.854,20.945,20.945,0,0,0,6.154,14.856,20.937,20.937,0,0,0,14.855,6.152,20.94,20.94,0,0,0,14.855-6.152,20.943,20.943,0,0,0,6.152-14.856,20.942,20.942,0,0,0-6.152-14.854,20.941,20.941,0,0,0-14.855-6.154Zm-16.078,4.93a22.666,22.666,0,0,0-6.66,16.078,22.66,22.66,0,0,0,6.66,16.078,22.666,22.666,0,0,0,16.078,6.66,22.666,22.666,0,0,0,16.076-6.66,22.667,22.667,0,0,0,6.66-16.078,22.673,22.673,0,0,0-6.66-16.078,22.666,22.666,0,0,0-16.076-6.66,22.666,22.666,0,0,0-16.078,6.66Zm-.475,44.786a32.917,32.917,0,0,0,7.345,3.129,1.148,1.148,0,0,1,.886,1.119V1.439a2.163,2.163,0,0,0,2.157,2.155h12.328a2.169,2.169,0,0,0,2.157-2.155V-8.611a1.153,1.153,0,0,1,.837-1.107,32.832,32.832,0,0,0,7.393-3.14,33.235,33.235,0,0,0,6.423-4.834,1.149,1.149,0,0,1,1.4-.193l8.711,5.03v0a2.144,2.144,0,0,0,1.636.208,2.152,2.152,0,0,0,1.311-1h0l6.128-10.616.035-.063a2.16,2.16,0,0,0,.211-1.636,2.151,2.151,0,0,0-1-1.312l-8.64-4.988a1.155,1.155,0,0,1-.608-1.307,33.137,33.137,0,0,0,.728-3.961,33.523,33.523,0,0,0,.244-4.038,33.543,33.543,0,0,0-.244-4.038,33.109,33.109,0,0,0-.728-3.959l0,0a1.147,1.147,0,0,1,.542-1.269l8.7-5.025a2.148,2.148,0,0,0,1-1.31,2.164,2.164,0,0,0-.211-1.638h0l-6.131-10.618-.038-.059a2.134,2.134,0,0,0-1.311-1,2.149,2.149,0,0,0-1.638.208l-8.652,4.994a1.149,1.149,0,0,1-1.43-.13,33.275,33.275,0,0,0-6.444-4.859,32.877,32.877,0,0,0-7.347-3.127,1.152,1.152,0,0,1-.885-1.122V-84.569a2.141,2.141,0,0,0-.636-1.521,2.15,2.15,0,0,0-1.521-.634h-12.328a2.161,2.161,0,0,0-1.524.634,2.152,2.152,0,0,0-.633,1.521v10.046a1.157,1.157,0,0,1-.837,1.109,32.884,32.884,0,0,0-7.4,3.142,33.289,33.289,0,0,0-6.447,4.859v0a1.146,1.146,0,0,1-1.366.166l-8.65-4.992-.064-.036a2.152,2.152,0,0,0-1.636-.208,2.14,2.14,0,0,0-1.311,1l0,0-6.162,10.674a2.146,2.146,0,0,0-.209,1.643,2.144,2.144,0,0,0,1,1.31v0l8.637,4.988a1.149,1.149,0,0,1,.608,1.307,33.515,33.515,0,0,0-.728,3.959,33.545,33.545,0,0,0-.242,4.038,33.525,33.525,0,0,0,.242,4.038,33.088,33.088,0,0,0,.728,3.961h0a1.147,1.147,0,0,1-.542,1.269l-8.641,4.989-.061.036a2.148,2.148,0,0,0-1,1.312,2.137,2.137,0,0,0,.209,1.639l6.128,10.614.036.061a2.156,2.156,0,0,0,1.311,1,2.16,2.16,0,0,0,1.59-.18l.046-.03,8.71-5.03a1.152,1.152,0,0,1,1.373.168,33.289,33.289,0,0,0,6.447,4.859Zm16.553-9.962a18.678,18.678,0,0,0,13.254-5.492,18.68,18.68,0,0,0,5.49-13.254,18.693,18.693,0,0,0-5.49-13.256,18.687,18.687,0,0,0-13.254-5.49,18.7,18.7,0,0,0-13.256,5.49,18.7,18.7,0,0,0-5.49,13.256,18.686,18.686,0,0,0,5.49,13.254,18.684,18.684,0,0,0,13.256,5.492Zm-11.624-7.12a16.387,16.387,0,0,0,11.624,4.815,16.394,16.394,0,0,0,11.625-4.815,16.389,16.389,0,0,0,4.816-11.626,16.385,16.385,0,0,0-4.816-11.624A16.387,16.387,0,0,0,1397.213-58a16.38,16.38,0,0,0-11.624,4.815,16.383,16.383,0,0,0-4.814,11.624A16.387,16.387,0,0,0,1385.589-29.94Z" transform="translate(259.098 113.507)" fill="#d1d4eb" fill-rule="evenodd"/>
      <path id="Path_4633" data-name="Path 4633" d="M1273.651-93.929h-1.246a.618.618,0,0,0-.44,1.051.615.615,0,0,0,.44.186h2.473a.621.621,0,0,0,.442-1.055.614.614,0,0,0-.442-.183ZM1424.219,10.733a.621.621,0,0,0,.442-1.055.629.629,0,0,0-.442-.183h-1.237a.619.619,0,1,0,0,1.237Zm-120.5-49.305a.617.617,0,0,0-1.051-.438.605.605,0,0,0-.186.438v1.237a.621.621,0,0,0,1.054.442.617.617,0,0,0,.183-.442v-1.237Zm0,4.95a.618.618,0,0,0-1.051-.44.612.612,0,0,0-.186.44v1.237a.62.62,0,0,0,1.054.44.615.615,0,0,0,.183-.44v-1.237Zm0,4.948a.618.618,0,0,0-1.051-.44.615.615,0,0,0-.186.44v1.237a.621.621,0,0,0,1.054.442.622.622,0,0,0,.183-.442v-1.237Zm0,4.95a.619.619,0,0,0-1.051-.442.616.616,0,0,0-.186.442v1.237a.62.62,0,0,0,1.054.44.616.616,0,0,0,.183-.44v-1.237Zm0,4.948a.618.618,0,0,0-1.051-.44.609.609,0,0,0-.186.44v1.237a.62.62,0,0,0,1.054.44.613.613,0,0,0,.183-.44v-1.237Zm0,4.95a.618.618,0,0,0-1.051-.44.606.606,0,0,0-.186.44v1.237a.619.619,0,0,0,1.054.438.609.609,0,0,0,.183-.438v-1.237Zm0,4.95a.618.618,0,0,0-1.051-.442.61.61,0,0,0-.186.442v1.236a.62.62,0,0,0,1.054.44.613.613,0,0,0,.183-.44V-8.877Zm0,4.948a.618.618,0,0,0-1.051-.44.606.606,0,0,0-.186.44v1.237a.62.62,0,0,0,1.054.44.616.616,0,0,0,.183-.44V-3.929ZM1304.1.826a.619.619,0,1,0-1.2.318,12.444,12.444,0,0,0,.4,1.241.619.619,0,0,0,1.2-.249.584.584,0,0,0-.04-.193A10.2,10.2,0,0,1,1304.1.826ZM1306.173,5a.618.618,0,0,0-.97.765c.267.341.55.671.848.984a.619.619,0,0,0,1.018-.662.592.592,0,0,0-.129-.2c-.27-.283-.526-.582-.768-.89Zm3.549,3.038a.62.62,0,0,0-.85.824.6.6,0,0,0,.25.259,12.775,12.775,0,0,0,1.168.573.619.619,0,0,0,.71-.972.6.6,0,0,0-.227-.166,11.335,11.335,0,0,1-1.051-.517Zm4.449,1.4a.619.619,0,0,0-.336,1.168.661.661,0,0,0,.218.063c.432.041.86.063,1.295.063a.619.619,0,0,0,0-1.237c-.394,0-.784-.02-1.176-.056Zm4.887.056a.619.619,0,1,0,0,1.237h1.237a.619.619,0,1,0,0-1.237Zm4.95,0a.619.619,0,1,0,0,1.237h1.237a.619.619,0,0,0,0-1.237Zm4.949,0a.619.619,0,1,0,0,1.237h1.236a.619.619,0,1,0,0-1.237Zm4.948,0a.619.619,0,1,0,0,1.237h1.238a.619.619,0,1,0,0-1.237Zm4.948,0a.619.619,0,1,0,0,1.237h1.236a.619.619,0,1,0,0-1.237Zm4.948,0a.619.619,0,0,0,0,1.237h1.238a.619.619,0,1,0,0-1.237Zm4.95,0a.619.619,0,1,0,0,1.237h1.237a.619.619,0,1,0,0-1.237Zm4.948,0a.619.619,0,0,0,0,1.237h1.237a.619.619,0,1,0,0-1.237Zm4.95,0a.619.619,0,0,0,0,1.237h1.237a.619.619,0,1,0,0-1.237Zm4.948,0a.619.619,0,1,0,0,1.237h1.238a.62.62,0,0,0,.442-1.055.627.627,0,0,0-.442-.183Zm4.95,0a.619.619,0,1,0,0,1.237h1.237a.619.619,0,1,0,0-1.237Zm4.95,0a.619.619,0,1,0,0,1.237h1.237a.619.619,0,0,0,0-1.237Zm4.948,0a.619.619,0,1,0,0,1.237h1.237a.619.619,0,1,0,0-1.237Zm4.949,0a.619.619,0,1,0,0,1.237h1.238a.619.619,0,0,0,0-1.237Zm4.948,0a.619.619,0,1,0,0,1.237h1.237a.619.619,0,1,0,0-1.237Zm4.949,0a.619.619,0,1,0,0,1.237h1.238a.619.619,0,0,0,0-1.237Zm4.948,0a.619.619,0,1,0,0,1.237h1.236a.619.619,0,1,0,0-1.237Zm4.948,0a.619.619,0,0,0,0,1.237h1.238a.619.619,0,1,0,0-1.237Zm4.948,0a.619.619,0,0,0,0,1.237h1.239a.619.619,0,1,0,0-1.237Zm4.95,0a.619.619,0,1,0,0,1.237h1.237a.619.619,0,1,0,0-1.237Zm4.95,0a.619.619,0,1,0,0,1.237h1.236a.619.619,0,1,0,0-1.237Zm-115.55-51.544a.62.62,0,0,0,1.054.44.615.615,0,0,0,.183-.44v-1.237a.618.618,0,0,0-1.051-.44.609.609,0,0,0-.186.44v1.237Zm0-4.948a.62.62,0,0,0,1.054.44.616.616,0,0,0,.183-.44v-1.237a.619.619,0,0,0-1.051-.442.616.616,0,0,0-.186.442V-47Zm0-4.95a.621.621,0,0,0,1.054.442.622.622,0,0,0,.183-.442v-1.237a.618.618,0,0,0-1.051-.44.612.612,0,0,0-.186.44v1.237Zm0-4.948a.62.62,0,0,0,1.054.44.615.615,0,0,0,.183-.44v-1.237a.617.617,0,0,0-1.051-.44.609.609,0,0,0-.186.44v1.237Zm0-4.95a.62.62,0,0,0,1.054.44.61.61,0,0,0,.183-.44v-1.237a.617.617,0,0,0-1.051-.438.605.605,0,0,0-.186.438v1.237Zm0-4.95a.62.62,0,0,0,1.054.442.614.614,0,0,0,.183-.442v-1.236a.617.617,0,0,0-1.051-.44.609.609,0,0,0-.186.44v1.236Zm0-4.948a.62.62,0,0,0,1.054.44.61.61,0,0,0,.183-.44v-1.237a.618.618,0,0,0-1.051-.44.612.612,0,0,0-.186.44v1.237Zm0-4.95a.62.62,0,0,0,1.054.442.614.614,0,0,0,.183-.442v-1.236a.617.617,0,0,0-1.051-.44.609.609,0,0,0-.186.44v1.236Zm-.011-4.915a.622.622,0,0,0,.522.58.62.62,0,0,0,.714-.644,12.633,12.633,0,0,0-.124-1.292.617.617,0,0,0-.445-.5.619.619,0,0,0-.778.687c.041.4.092.765.111,1.172Zm1.236-.064-1.346-1.1,1.346,1.1Zm-2.383-4.459a.619.619,0,0,0,1.173-.28.61.61,0,0,0-.063-.264,11.357,11.357,0,0,0-.628-1.14.62.62,0,0,0-1.127.186.63.63,0,0,0,.078.471c.206.338.394.671.567,1.027Zm-2.842-3.706a.62.62,0,0,0,.967-.728.6.6,0,0,0-.155-.206,12.958,12.958,0,0,0-1.021-.8.62.62,0,0,0-.875.844.663.663,0,0,0,.163.168,11.541,11.541,0,0,1,.921.727Zm-4.058-2.3a.619.619,0,0,0,.6-1.046.59.59,0,0,0-.227-.13c-.415-.133-.829-.245-1.256-.338a.62.62,0,0,0-.489,1.109.614.614,0,0,0,.232.1c.385.086.758.183,1.135.3Zm-4.7-.555a.621.621,0,0,0,.442-1.055.619.619,0,0,0-.442-.183h-1.238a.618.618,0,0,0-.44,1.051.618.618,0,0,0,.44.186Zm-4.948,0a.62.62,0,0,0,.44-1.055.613.613,0,0,0-.44-.183h-1.238a.618.618,0,0,0-.44,1.051.62.62,0,0,0,.44.186Zm-4.95,0a.62.62,0,0,0,.44-1.055.61.61,0,0,0-.44-.183h-1.237a.617.617,0,0,0-.438,1.051.612.612,0,0,0,.438.186Zm-67.107-108.641a.62.62,0,0,0-1.053-.442.621.621,0,0,0-.184.442v.222a.619.619,0,0,0,1.053.44.608.608,0,0,0,.184-.44v-.222Zm0,3.935a.619.619,0,0,0-1.053-.44.612.612,0,0,0-.184.44v1.237a.619.619,0,0,0,1.053.44.61.61,0,0,0,.184-.44V-197.4Zm0,4.95a.62.62,0,0,0-1.053-.442.616.616,0,0,0-.184.442v1.237a.619.619,0,0,0,1.053.438.607.607,0,0,0,.184-.438v-1.237Zm0,4.948a.619.619,0,0,0-1.053-.44.612.612,0,0,0-.184.44v1.236a.62.62,0,0,0,1.053.442.609.609,0,0,0,.184-.442V-187.5Zm0,4.948a.619.619,0,0,0-1.053-.44.618.618,0,0,0-.184.44v1.237a.619.619,0,0,0,1.053.44.608.608,0,0,0,.184-.44v-1.237Zm0,4.95a.619.619,0,0,0-1.053-.44.612.612,0,0,0-.184.44v1.236a.619.619,0,0,0,1.053.442.609.609,0,0,0,.184-.442V-177.6Zm0,4.948a.618.618,0,0,0-1.053-.438.611.611,0,0,0-.184.438v1.237a.619.619,0,0,0,1.053.44.605.605,0,0,0,.184-.44v-1.237Zm0,4.95a.619.619,0,0,0-1.053-.44.615.615,0,0,0-.184.44v1.237a.619.619,0,0,0,1.053.44.608.608,0,0,0,.184-.44v-1.237Zm0,4.948a.619.619,0,0,0-1.053-.44.618.618,0,0,0-.184.44v1.237a.62.62,0,0,0,1.053.442.614.614,0,0,0,.184-.442v-1.237Zm0,4.95a.62.62,0,0,0-1.053-.442.624.624,0,0,0-.184.442v1.237a.619.619,0,0,0,1.053.44.613.613,0,0,0,.184-.44v-1.237Zm0,4.948a.619.619,0,0,0-1.053-.44.615.615,0,0,0-.184.44v1.237a.619.619,0,0,0,1.053.44.611.611,0,0,0,.184-.44v-1.237Zm0,4.95a.62.62,0,0,0-1.053-.442.618.618,0,0,0-.184.442v1.237a.619.619,0,0,0,1.053.438.607.607,0,0,0,.184-.438v-1.237Zm0,4.948a.619.619,0,0,0-1.053-.44.615.615,0,0,0-.184.44v1.237a.619.619,0,0,0,1.053.44.611.611,0,0,0,.184-.44v-1.237Zm0,4.95a.62.62,0,0,0-1.053-.442.618.618,0,0,0-.184.442v1.237a.619.619,0,0,0,1.053.438.6.6,0,0,0,.184-.438v-1.237Zm0,4.948a.619.619,0,0,0-1.053-.44.615.615,0,0,0-.184.44v1.237a.619.619,0,0,0,1.053.44.61.61,0,0,0,.184-.44v-1.237Zm0,4.95a.62.62,0,0,0-1.053-.442.618.618,0,0,0-.184.442v1.236a.619.619,0,0,0,1.053.44.605.605,0,0,0,.184-.44v-1.236Zm0,4.946a.619.619,0,0,0-1.053-.438.614.614,0,0,0-.184.438v1.237a.619.619,0,0,0,1.053.442.609.609,0,0,0,.184-.442v-1.237Zm.008,4.935a.62.62,0,0,0-1.13-.333.623.623,0,0,0-.107.364c.008.42.03.849.063,1.267a.618.618,0,0,0,1.219.087.614.614,0,0,0,.013-.181c-.03-.4-.051-.8-.058-1.2Zm.583,4.783a.615.615,0,0,0-.348-.427.619.619,0,0,0-.858.7c.09.412.194.822.306,1.229a.618.618,0,0,0,1.213-.137.555.555,0,0,0-.022-.194c-.107-.389-.2-.779-.292-1.171Zm1.5,4.579a.622.622,0,0,0-.638-.364.618.618,0,0,0-.489.868c.168.386.348.771.537,1.147a.619.619,0,0,0,1.163-.374.6.6,0,0,0-.059-.185c-.181-.359-.349-.725-.514-1.092Zm2.363,4.2a.618.618,0,0,0-1.122.306.611.611,0,0,0,.11.407c.242.346.489.687.75,1.022a.619.619,0,0,0,1.1-.3.622.622,0,0,0-.125-.461c-.245-.32-.483-.643-.714-.974Zm3.122,3.676a.612.612,0,0,0-.583-.152.616.616,0,0,0-.275,1.041c.3.295.611.582.929.862a.618.618,0,0,0,.591.125.619.619,0,0,0,.224-1.056q-.453-.4-.887-.821Zm3.765,3.015a.613.613,0,0,0-.654-.012.618.618,0,0,0-.022,1.048q.532.348,1.078.669a.62.62,0,0,0,.755-.969.713.713,0,0,0-.13-.1c-.346-.2-.689-.415-1.027-.636Zm4.271,2.238a.619.619,0,0,0-.639,1.038.581.581,0,0,0,.178.109q.586.237,1.186.448a.618.618,0,0,0,.544-1.1.547.547,0,0,0-.139-.069c-.38-.133-.756-.275-1.13-.427Zm4.62,1.366a.619.619,0,0,0-.428,1.14.592.592,0,0,0,.2.076c.415.079.829.148,1.247.208a.619.619,0,0,0,.336-1.178.706.706,0,0,0-.163-.046c-.4-.058-.8-.124-1.195-.2Zm4.808.445a.619.619,0,0,0-.441,1.051.619.619,0,0,0,.441.186H1239a.62.62,0,0,0,.438-1.055.613.613,0,0,0-.438-.183Zm4.948,0a.618.618,0,0,0-.44,1.051.616.616,0,0,0,.44.186h1.237a.62.62,0,0,0,.44-1.055.613.613,0,0,0-.44-.183Zm4.95,0a.619.619,0,0,0-.442,1.051.62.62,0,0,0,.442.186h1.237a.619.619,0,0,0,.438-1.055.611.611,0,0,0-.438-.183Zm4.949,0a.618.618,0,0,0-.442,1.051.614.614,0,0,0,.442.186h1.236a.62.62,0,0,0,.44-1.055.613.613,0,0,0-.44-.183Zm4.948,0a.618.618,0,0,0-.44,1.051.613.613,0,0,0,.44.186h1.237a.62.62,0,0,0,.44-1.055.615.615,0,0,0-.44-.183Zm4.948,0a.618.618,0,0,0-.44,1.051.616.616,0,0,0,.44.186h1.237a.62.62,0,0,0,.44-1.055.613.613,0,0,0-.44-.183Zm4.948,0a.617.617,0,0,0-.438,1.051.612.612,0,0,0,.438.186h1.238a.62.62,0,0,0,.44-1.055.61.61,0,0,0-.44-.183Z" transform="translate(180.201 62.461)" fill="#ea6667" fill-rule="evenodd"/>
    </g>
  </g>
</svg>
