<svg xmlns="http://www.w3.org/2000/svg" width="348.797" height="138.272" viewBox="0 0 348.797 138.272">
  <g id="Group_10889" data-name="Group 10889" transform="translate(-609.952 27.081)">
    <g id="Group_10879" data-name="Group 10879" transform="translate(690.092 -5.929)">
      <path id="Path_4815" data-name="Path 4815" d="M671.492,10.687l-8.632-8.445a2.78,2.78,0,0,0-4.545,1l-6.235,16.421-1.12,2.954a2.781,2.781,0,0,0,4.17,3.285l15.988-10.931A2.779,2.779,0,0,0,671.492,10.687Z" transform="translate(-591.537 74.817)" fill="#d4f1ff"/>
      <path id="Path_4816" data-name="Path 4816" d="M821.192-20.83,635.664,15.82a2.782,2.782,0,0,0-.219,5.405l39.18,11.081a2.775,2.775,0,0,0,1.608-.027l85.836-27.6a2.782,2.782,0,0,1,2.377,4.975L707.653,46.915a2.779,2.779,0,0,0-.433,4.3l34.7,34.465a2.781,2.781,0,0,0,4.169-.283L823.941-16.411A2.781,2.781,0,0,0,821.192-20.83Z" transform="translate(-633.421 20.887)" fill="#d4f1ff"/>
      <path id="Path_4817" data-name="Path 4817" d="M717.136-11.008,648.572,12.963a2.783,2.783,0,0,0-1.83,3.053L651.624,47.4a2.781,2.781,0,0,0,5.347.56l9.011-23.739.454-1.192,1.318-.826,50.214-31.48A.967.967,0,0,0,717.136-11.008Z" transform="translate(-601.337 44.594)" fill="#d4f1ff"/>
    </g>
    <path id="Path_4818" data-name="Path 4818" d="M763.574,28.921l-4.938-2.336a11.759,11.759,0,0,0-3.7-8.574A10.932,10.932,0,0,0,739.224,4.093a19.578,19.578,0,0,0-32.156,10.8A11.8,11.8,0,0,0,696.84,26.586c0,.2.02.393.031.591l-5.313,1.66a1.674,1.674,0,0,0,.5,3.271h70.8A1.673,1.673,0,0,0,763.574,28.921Z" transform="translate(194.214 63.427)" fill="#fafbfc"/>
    <path id="Path_4819" data-name="Path 4819" d="M723.18,6.516,711.163,3.573h0A14.5,14.5,0,0,0,699.454-5.08l.006-.1a11.333,11.333,0,0,0-11.333-11.333,11.262,11.262,0,0,0-3.7.632,14.5,14.5,0,0,0-14.113-11.2,14.5,14.5,0,0,0-14.5,14.5c0,.133.014.266.017.4a14.412,14.412,0,0,0-3.346-.4,14.494,14.494,0,0,0-12.867,7.827,14.408,14.408,0,0,0-16.944,8.889c-4.026.823-8.007,1.639-11.586,2.37a1.425,1.425,0,0,0,.294,2.821H722.838A1.426,1.426,0,0,0,723.18,6.516Z" transform="translate(0 0)" fill="#f5f7fa" opacity="0.5"/>
    <g id="Group_10880" data-name="Group 10880" transform="translate(876.838 26.206)">
      <path id="Path_4820" data-name="Path 4820" d="M726.348-8.693H689.5a1.389,1.389,0,0,1-1.39-1.39,1.39,1.39,0,0,1,1.39-1.393h36.848a1.389,1.389,0,0,1,1.39,1.393A1.389,1.389,0,0,1,726.348-8.693Z" transform="translate(-688.11 11.476)" fill="#f5f7fa"/>
    </g>
    <g id="Group_10881" data-name="Group 10881" transform="translate(655.087 94.145)">
      <path id="Path_4821" data-name="Path 4821" d="M665.393,11.2h-40.83a1.39,1.39,0,1,1,0-2.78h40.83a1.39,1.39,0,1,1,0,2.78Z" transform="translate(-623.17 -8.42)" fill="#f5f7fa"/>
    </g>
    <g id="Group_10882" data-name="Group 10882" transform="translate(626.348 56.617)">
      <path id="Path_4822" data-name="Path 4822" d="M695,.213H616.144a1.39,1.39,0,0,1-1.39-1.393,1.389,1.389,0,0,1,1.39-1.39H695a1.389,1.389,0,0,1,1.39,1.39A1.39,1.39,0,0,1,695,.213Z" transform="translate(-614.754 2.57)" fill="#f5f7fa"/>
    </g>
    <g id="Group_10883" data-name="Group 10883" transform="translate(775.21 -7.32)">
      <path id="Path_4823" data-name="Path 4823" d="M701.746-18.511h-42a1.4,1.4,0,0,1-1.393-1.393,1.392,1.392,0,0,1,1.393-1.39h42a1.392,1.392,0,0,1,1.393,1.39A1.4,1.4,0,0,1,701.746-18.511Z" transform="translate(-658.348 21.294)" fill="#f5f7fa"/>
    </g>
    <g id="Group_10884" data-name="Group 10884" transform="translate(843.012 73.035)">
      <path id="Path_4824" data-name="Path 4824" d="M695.069,5.021H679.594a1.391,1.391,0,0,1,0-2.783h15.475a1.391,1.391,0,0,1,0,2.783Z" transform="translate(-678.204 -2.238)" fill="#f5f7fa"/>
    </g>
    <g id="Group_10885" data-name="Group 10885" transform="translate(633.024 32.277)">
      <path id="Path_4825" data-name="Path 4825" d="M655.664-6.915H618.1a1.392,1.392,0,0,1-1.39-1.393A1.389,1.389,0,0,1,618.1-9.7h37.565a1.39,1.39,0,0,1,1.393,1.39A1.393,1.393,0,0,1,655.664-6.915Z" transform="translate(-616.709 9.698)" fill="#f5f7fa"/>
    </g>
    <g id="Group_10886" data-name="Group 10886" transform="translate(896.33 -0.658)">
      <path id="Path_4826" data-name="Path 4826" d="M743.113-16.56h-47.9a1.4,1.4,0,0,1-1.393-1.393,1.392,1.392,0,0,1,1.393-1.39h47.9a1.389,1.389,0,0,1,1.39,1.39A1.392,1.392,0,0,1,743.113-16.56Z" transform="translate(-693.818 19.343)" fill="#f5f7fa"/>
    </g>
    <g id="Group_10887" data-name="Group 10887" transform="translate(886.147 49.453)">
      <path id="Path_4827" data-name="Path 4827" d="M743.05-1.885H692.226a1.389,1.389,0,0,1-1.39-1.39,1.392,1.392,0,0,1,1.39-1.393H743.05a1.392,1.392,0,0,1,1.39,1.393A1.389,1.389,0,0,1,743.05-1.885Z" transform="translate(-690.836 4.668)" fill="#f5f7fa"/>
    </g>
    <g id="Group_10888" data-name="Group 10888" transform="translate(835.64 108.412)">
      <path id="Path_4828" data-name="Path 4828" d="M715.021,15.378H677.438a1.39,1.39,0,1,1,0-2.78h37.582a1.39,1.39,0,1,1,0,2.78Z" transform="translate(-676.045 -12.598)" fill="#f5f7fa"/>
    </g>
  </g>
</svg>
