<svg xmlns="http://www.w3.org/2000/svg" width="401.636" height="179.369" viewBox="0 0 401.636 179.369">
  <g id="Group_10878" data-name="Group 10878" transform="translate(-1352.212 366.004)">
    <path id="Path_4795" data-name="Path 4795" d="M1461.6-257.088l-5.489-2.6a13.085,13.085,0,0,0-4.123-9.534,12.1,12.1,0,0,0,.909-7.653,12.183,12.183,0,0,0-9.544-9.46,12.145,12.145,0,0,0-8.833,1.636,21.683,21.683,0,0,0-14.39-5.455,21.8,21.8,0,0,0-21.365,17.469,13.121,13.121,0,0,0-11.373,13c0,.222.024.439.034.655l-5.908,1.846a1.862,1.862,0,0,0,.557,3.638h78.731A1.861,1.861,0,0,0,1461.6-257.088Z" transform="translate(-28 53.523)" fill="#f5f7fa" opacity="0.5"/>
    <path id="Path_4796" data-name="Path 4796" d="M1609.442-285.642l-13.358-3.275h0a16.132,16.132,0,0,0-13.021-9.624c0-.034,0-.067,0-.1a12.6,12.6,0,0,0-12.6-12.6,12.594,12.594,0,0,0-4.118.7A16.119,16.119,0,0,0,1550.657-323a16.124,16.124,0,0,0-16.125,16.124c0,.152.019.3.022.451a16.046,16.046,0,0,0-3.72-.451,16.114,16.114,0,0,0-14.308,8.706,16.208,16.208,0,0,0-3.8-.47,16.116,16.116,0,0,0-15.043,10.354l-12.881,2.636a1.585,1.585,0,0,0,.325,3.137h123.941A1.585,1.585,0,0,0,1609.442-285.642Z" transform="translate(143.198 -43)" fill="#ecf0f6" opacity="0.5"/>
    <g id="Group_10867" data-name="Group 10867" transform="translate(1655.047 -288.066)">
      <path id="Path_4797" data-name="Path 4797" d="M1537.807-303.86h-40.974a1.545,1.545,0,0,1-1.547-1.547,1.545,1.545,0,0,1,1.547-1.544h40.974a1.545,1.545,0,0,1,1.547,1.544A1.545,1.545,0,0,1,1537.807-303.86Z" transform="translate(-1495.286 306.951)" fill="#ecf0f6"/>
    </g>
    <g id="Group_10868" data-name="Group 10868" transform="translate(1448.622 -196.659)">
      <path id="Path_4798" data-name="Path 4798" d="M1456.565-265.921H1411.16a1.545,1.545,0,0,1-1.544-1.547,1.545,1.545,0,0,1,1.544-1.547h45.405a1.545,1.545,0,0,1,1.547,1.547A1.545,1.545,0,0,1,1456.565-265.921Z" transform="translate(-1409.615 269.015)" fill="#ecf0f6"/>
    </g>
    <g id="Group_10869" data-name="Group 10869" transform="translate(1393.711 -267.66)">
      <path id="Path_4799" data-name="Path 4799" d="M1414.193-295.388h-25.823a1.545,1.545,0,0,1-1.544-1.547,1.545,1.545,0,0,1,1.544-1.547h25.823a1.547,1.547,0,0,1,1.547,1.547A1.547,1.547,0,0,1,1414.193-295.388Z" transform="translate(-1386.826 298.482)" fill="#ecf0f6"/>
    </g>
    <g id="Group_10870" data-name="Group 10870" transform="translate(1592.53 -308.051)">
      <path id="Path_4800" data-name="Path 4800" d="M1517.6-312.151h-46.711a1.546,1.546,0,0,1-1.547-1.547,1.547,1.547,0,0,1,1.547-1.547H1517.6a1.547,1.547,0,0,1,1.547,1.547A1.545,1.545,0,0,1,1517.6-312.151Z" transform="translate(-1469.34 315.245)" fill="#ecf0f6"/>
    </g>
    <g id="Group_10871" data-name="Group 10871" transform="translate(1694.752 -218.356)">
      <path id="Path_4801" data-name="Path 4801" d="M1530.52-274.929h-17.209a1.546,1.546,0,0,1-1.547-1.547,1.545,1.545,0,0,1,1.547-1.544h17.209a1.545,1.545,0,0,1,1.547,1.544A1.546,1.546,0,0,1,1530.52-274.929Z" transform="translate(-1511.764 278.02)" fill="#ecf0f6"/>
    </g>
    <g id="Group_10872" data-name="Group 10872" transform="translate(1387.177 -298.767)">
      <path id="Path_4802" data-name="Path 4802" d="M1402.87-308.3h-17.209a1.547,1.547,0,0,1-1.547-1.547,1.545,1.545,0,0,1,1.547-1.547h17.209a1.546,1.546,0,0,1,1.547,1.547A1.547,1.547,0,0,1,1402.87-308.3Z" transform="translate(-1384.114 311.392)" fill="#ecf0f6"/>
    </g>
    <g id="Group_10873" data-name="Group 10873" transform="translate(1414.353 -326.746)">
      <path id="Path_4803" data-name="Path 4803" d="M1426.339-319.91h-29.4a1.546,1.546,0,0,1-1.547-1.547A1.546,1.546,0,0,1,1396.94-323h29.4a1.546,1.546,0,0,1,1.547,1.547A1.546,1.546,0,0,1,1426.339-319.91Z" transform="translate(-1395.393 323.004)" fill="#ecf0f6"/>
    </g>
    <g id="Group_10874" data-name="Group 10874" transform="translate(1468.939 -304.957)">
      <path id="Path_4804" data-name="Path 4804" d="M1472.859-310.867h-53.265a1.545,1.545,0,0,1-1.547-1.547,1.545,1.545,0,0,1,1.547-1.547h53.265a1.545,1.545,0,0,1,1.547,1.547A1.545,1.545,0,0,1,1472.859-310.867Z" transform="translate(-1418.047 313.961)" fill="#ecf0f6"/>
    </g>
    <g id="Group_10875" data-name="Group 10875" transform="translate(1695.205 -262.217)">
      <path id="Path_4805" data-name="Path 4805" d="M1539.081-293.129H1513.5a1.545,1.545,0,0,1-1.545-1.547,1.545,1.545,0,0,1,1.545-1.547h25.584a1.545,1.545,0,0,1,1.547,1.547A1.545,1.545,0,0,1,1539.081-293.129Z" transform="translate(-1511.952 296.223)" fill="#ecf0f6"/>
    </g>
    <g id="Group_10876" data-name="Group 10876" transform="translate(1619.89 -205.964)">
      <path id="Path_4806" data-name="Path 4806" d="M1524.035-269.786h-41.793a1.545,1.545,0,0,1-1.547-1.544,1.546,1.546,0,0,1,1.547-1.547h41.793a1.546,1.546,0,0,1,1.547,1.547A1.545,1.545,0,0,1,1524.035-269.786Z" transform="translate(-1480.695 272.877)" fill="#ecf0f6"/>
    </g>
    <g id="Group_10877" data-name="Group 10877" transform="translate(1416.989 -308.53)">
      <path id="Path_4807" data-name="Path 4807" d="M1478.149-256.456a23.36,23.36,0,0,1-3.1-12.385,28.672,28.672,0,0,1,.578-5.8l-16.739,15.609A71.419,71.419,0,0,0,1478.149-256.456Z" transform="translate(-1308.536 372.951)" fill="#ecf0f6"/>
      <path id="Path_4808" data-name="Path 4808" d="M1475.79-314.6h-26.832a1.4,1.4,0,0,0-1.2,2.125l9.889,16.44,11.881-.7,25.671-1.513-16.175-15.079A4.732,4.732,0,0,0,1475.79-314.6Z" transform="translate(-1324.509 316.629)" fill="#d4f1ff"/>
      <path id="Path_4809" data-name="Path 4809" d="M1422.643-266.254a30.36,30.36,0,0,1,18.777-5.932,46.865,46.865,0,0,1,14.657,2.508,8.2,8.2,0,0,1,4.957,4.631,8.274,8.274,0,0,1-.239,6.845c-2.67,5.388-8.395,10.727-17.018,15.867-1.321.788-2.662,1.475-4.014,2.113a25.7,25.7,0,0,0,3.978,1.306c17.028,3.942,38.429,6.407,60.917,7.9l11.171-18.573a8.1,8.1,0,0,1,4.272-3.467,108.178,108.178,0,0,1,35.468-6.053,98.44,98.44,0,0,1,30.564,4.732,7.953,7.953,0,0,1,5.3,5.9,7.959,7.959,0,0,1-2.373,7.573l-12.835,11.968c28.755-.014,53.1-.848,64.753-1.251,38.362-1.323,30.5-26.066,21.054-29.878s-19.777-6.118-26.292-17.869c-6.12-11.033-17.455-16.2-28.828-16.2q-1.11,0-2.217.065c-12.093.713-41.116,2.422-62.884,3.7l-89.489,5.267-14.8-23.1a15.759,15.759,0,0,0-13.267-7.257c-.308,0-.619.007-.93.026l-22.129,1.3a4.983,4.983,0,0,0-4.135,7.286c5.156,9.826,14.944,28.379,23.11,43.251l.94-1.181A8.556,8.556,0,0,1,1422.643-266.254Z" transform="translate(-1396.487 315.444)" fill="#d4f1ff"/>
      <path id="Path_4810" data-name="Path 4810" d="M1431.033-275.152c9.718-5.792,13.527-10.693,15.021-13.708a3.021,3.021,0,0,0-1.718-4.234,41.8,41.8,0,0,0-12.995-2.238,25.446,25.446,0,0,0-15.638,4.879,3.393,3.393,0,0,0-.6.59l-10.578,13.276a4.052,4.052,0,0,0,2.619,6.539,34.686,34.686,0,0,0,4.793.33A36.964,36.964,0,0,0,1431.033-275.152Z" transform="translate(-1386.408 343.792)" fill="#d4f1ff"/>
      <path id="Path_4811" data-name="Path 4811" d="M1529.741-280.706a2.811,2.811,0,0,0-1.024-4.73A92.564,92.564,0,0,0,1499.8-289.9a102.81,102.81,0,0,0-33.765,5.768,2.887,2.887,0,0,0-1.516,1.231l-27.784,46.2a4.723,4.723,0,0,0,4.048,7.159h30.444a9.269,9.269,0,0,0,6.32-2.489Z" transform="translate(-1340.719 351.445)" fill="#d4f1ff"/>
      <path id="Path_4812" data-name="Path 4812" d="M1473.619-277.267c-3.241,0-5.867,5.429-5.867,12.122s2.627,12.125,5.867,12.125,5.865-5.429,5.865-12.125S1476.858-277.267,1473.619-277.267Z" transform="translate(-1296.038 369.255)" fill="#ecf0f6"/>
      <path id="Path_4813" data-name="Path 4813" d="M1514.009-298.111a31.44,31.44,0,0,0-1.973-3.014c-.277.224-5.961,4.626-25.445,4.029a3.594,3.594,0,0,0-3.034,5.7c3.145,4.152,7.361,7.821,12.373,8.73,7.021,1.272,24.847-.089,29.606-3.838A29.207,29.207,0,0,1,1514.009-298.111Z" transform="translate(-1274.758 335.627)" fill="#fff"/>
      <rect id="Rectangle_3034" data-name="Rectangle 3034" width="8.52" height="11.572" rx="0.904" transform="translate(80.128 43.964)" fill="#fff"/>
      <rect id="Rectangle_3035" data-name="Rectangle 3035" width="8.52" height="11.572" rx="0.904" transform="translate(103.843 43.964)" fill="#fff"/>
      <rect id="Rectangle_3036" data-name="Rectangle 3036" width="8.52" height="11.572" rx="0.904" transform="translate(127.559 43.964)" fill="#fff"/>
      <rect id="Rectangle_3037" data-name="Rectangle 3037" width="8.52" height="11.572" rx="0.904" transform="translate(151.274 43.964)" fill="#fff"/>
      <rect id="Rectangle_3038" data-name="Rectangle 3038" width="8.52" height="11.572" rx="0.904" transform="translate(174.989 43.964)" fill="#fff"/>
    </g>
  </g>
</svg>
