<svg xmlns="http://www.w3.org/2000/svg" width="482.953" height="218.442" viewBox="0 0 482.953 218.442">
  <g id="Group_10904" data-name="Group 10904" transform="translate(-897.133 29.885)">
    <path id="Path_4829" data-name="Path 4829" d="M997.59,42.843l-6.777-3.206a16.129,16.129,0,0,0-5.085-11.764A15.007,15.007,0,0,0,964.169,8.766a26.876,26.876,0,0,0-44.134,14.829A16.2,16.2,0,0,0,906,39.637c0,.277.028.544.042.811l-7.292,2.278a2.3,2.3,0,0,0,.684,4.49h97.179A2.3,2.3,0,0,0,997.59,42.843Z" transform="translate(0 117.683)" fill="#f5f7fa" opacity="0.5"/>
    <path id="Path_4830" data-name="Path 4830" d="M1122.108,16.227l-16.488-4.04h0A19.92,19.92,0,0,0,1089.55.307l0-.127A15.555,15.555,0,0,0,1074-15.375a15.458,15.458,0,0,0-5.08.867,19.892,19.892,0,0,0-19.365-15.377,19.9,19.9,0,0,0-19.9,19.9c0,.187.023.37.028.558a19.778,19.778,0,0,0-4.593-.558A19.891,19.891,0,0,0,1007.425.761a19.78,19.78,0,0,0-23.26,12.2c-5.521,1.129-10.99,2.25-15.9,3.253a1.956,1.956,0,0,0,.4,3.871h152.978A1.957,1.957,0,0,0,1122.108,16.227Z" transform="translate(256.487 0)" fill="#f5f7fa" opacity="0.5"/>
    <g id="Group_10890" data-name="Group 10890" transform="translate(1258.737 37.786)" opacity="0.5">
      <path id="Path_4831" data-name="Path 4831" d="M1026.771-11.631H976.2a1.907,1.907,0,0,1-1.912-1.907,1.907,1.907,0,0,1,1.912-1.907h50.569a1.907,1.907,0,0,1,1.912,1.907A1.907,1.907,0,0,1,1026.771-11.631Z" transform="translate(-974.289 15.446)" fill="#f5f7fa"/>
    </g>
    <g id="Group_10891" data-name="Group 10891" transform="translate(1225.71 155.544)" opacity="0.5">
      <path id="Path_4832" data-name="Path 4832" d="M1019.724,13.495H969.15a1.907,1.907,0,0,1,0-3.815h50.574a1.907,1.907,0,1,1,0,3.815Z" transform="translate(-967.242 -9.68)" fill="#f5f7fa"/>
    </g>
    <g id="Group_10892" data-name="Group 10892" transform="translate(975.637 180.037)" opacity="0.5">
      <path id="Path_4833" data-name="Path 4833" d="M971.835,18.721H915.792a1.907,1.907,0,1,1,0-3.815h56.043a1.907,1.907,0,0,1,0,3.815Z" transform="translate(-913.884 -14.906)" fill="#f5f7fa"/>
    </g>
    <g id="Group_10893" data-name="Group 10893" transform="translate(957.795 56.767)" opacity="0.5">
      <path id="Path_4834" data-name="Path 4834" d="M943.854-7.581h-31.87a1.906,1.906,0,0,1-1.907-1.907,1.906,1.906,0,0,1,1.907-1.907h31.87a1.906,1.906,0,0,1,1.907,1.907A1.906,1.906,0,0,1,943.854-7.581Z" transform="translate(-910.077 11.396)" fill="#f5f7fa"/>
    </g>
    <g id="Group_10894" data-name="Group 10894" transform="translate(993.48 134.862)" opacity="0.5">
      <path id="Path_4835" data-name="Path 4835" d="M951.473,9.082H919.6a1.907,1.907,0,1,1,0-3.815h31.87a1.907,1.907,0,1,1,0,3.815Z" transform="translate(-917.691 -5.267)" fill="#f5f7fa"/>
    </g>
    <g id="Group_10895" data-name="Group 10895" transform="translate(1153.226 8.822)" opacity="0.5">
      <path id="Path_4836" data-name="Path 4836" d="M1011.335-17.806H953.683a1.907,1.907,0,0,1-1.907-1.912,1.906,1.906,0,0,1,1.907-1.907h57.651a1.907,1.907,0,0,1,1.912,1.907A1.908,1.908,0,0,1,1011.335-17.806Z" transform="translate(-951.776 21.626)" fill="#f5f7fa"/>
    </g>
    <g id="Group_10896" data-name="Group 10896" transform="translate(1294.281 129.158)" opacity="0.5">
      <path id="Path_4837" data-name="Path 4837" d="M1012.655,7.865H983.781a1.907,1.907,0,1,1,0-3.815h28.875a1.907,1.907,0,1,1,0,3.815Z" transform="translate(-981.873 -4.05)" fill="#f5f7fa"/>
    </g>
    <g id="Group_10897" data-name="Group 10897" transform="translate(1119.022 -18.07)" opacity="0.5">
      <path id="Path_4838" data-name="Path 4838" d="M967.63-23.549H946.39a1.907,1.907,0,0,1-1.912-1.907,1.907,1.907,0,0,1,1.912-1.907h21.24a1.906,1.906,0,0,1,1.907,1.907A1.906,1.906,0,0,1,967.63-23.549Z" transform="translate(-944.478 27.364)" fill="#f5f7fa"/>
    </g>
    <g id="Group_10898" data-name="Group 10898" transform="translate(986.609 29.669)" opacity="0.5">
      <path id="Path_4839" data-name="Path 4839" d="M958.462-13.358H918.133a1.91,1.91,0,0,1-1.908-1.912,1.906,1.906,0,0,1,1.908-1.907h40.329a1.91,1.91,0,0,1,1.912,1.907A1.914,1.914,0,0,1,958.462-13.358Z" transform="translate(-916.225 17.178)" fill="#f5f7fa"/>
    </g>
    <g id="Group_10899" data-name="Group 10899" transform="translate(966.555 -2.107)" opacity="0.5">
      <path id="Path_4840" data-name="Path 4840" d="M950.143-20.138H913.858a1.914,1.914,0,0,1-1.912-1.912,1.91,1.91,0,0,1,1.912-1.907h36.284a1.906,1.906,0,0,1,1.908,1.907A1.91,1.91,0,0,1,950.143-20.138Z" transform="translate(-911.946 23.958)" fill="#f5f7fa"/>
    </g>
    <g id="Group_10900" data-name="Group 10900" transform="translate(1301.639 67.303)" opacity="0.5">
      <path id="Path_4841" data-name="Path 4841" d="M1016.93-5.328H985.35a1.91,1.91,0,0,1-1.907-1.912,1.906,1.906,0,0,1,1.907-1.907h31.579a1.906,1.906,0,0,1,1.907,1.907A1.91,1.91,0,0,1,1016.93-5.328Z" transform="translate(-983.443 9.148)" fill="#f5f7fa"/>
    </g>
    <g id="Group_10901" data-name="Group 10901" transform="translate(1139.194 178.125)" opacity="0.5">
      <path id="Path_4842" data-name="Path 4842" d="M1002.276,18.318H950.69a1.91,1.91,0,0,1,0-3.82h51.587a1.91,1.91,0,0,1,0,3.82Z" transform="translate(-948.782 -14.498)" fill="#f5f7fa"/>
    </g>
    <g id="Group_10903" data-name="Group 10903" transform="translate(1009.274 -4.9)">
      <path id="Path_4843" data-name="Path 4843" d="M1157.575,52.044a18.534,18.534,0,0,0,0-27.787c-19.675-17.453-61-44.486-124.084-38.815C971.241-8.967,929.7,11.2,929.7,11.2V65.1s41.538,20.167,103.787,25.763C1096.578,96.531,1137.9,69.5,1157.575,52.044Z" transform="translate(-889.201 58.576)" fill="#d4f1ff"/>
      <path id="Path_4844" data-name="Path 4844" d="M930.951,4.457V61.949c44.275,0,66.457-20.345,77.157-36.8C970.188,19.511,942.438,9.237,930.951,4.457Z" transform="translate(-884.599 131.509)" fill="#d4f1ff"/>
      <path id="Path_4845" data-name="Path 4845" d="M930.951,32.933V-24.554c44.275,0,66.457,20.34,77.157,36.791C970.188,17.879,942.438,28.153,930.951,32.933Z" transform="translate(-884.599 24.554)" fill="#d4f1ff"/>
      <path id="Path_4846" data-name="Path 4846" d="M955.958,16.568V-9.471c-13.91,0-21.165,7.56-21.165,7.56s7.255.909,9.374,4.837c-13,2.118-23.106,13.643-23.106,13.643s10.1,11.52,23.106,13.638c-2.118,3.932-9.374,4.837-9.374,4.837s7.255,7.56,21.165,7.56Z" transform="translate(-921.061 80.16)" fill="#d4f1ff"/>
      <path id="Path_4847" data-name="Path 4847" d="M945.588,29.687a1.513,1.513,0,0,0,2.5-.815l.942-4.607a1.5,1.5,0,0,1,.736-1.012l4.091-2.32a1.511,1.511,0,0,0,0-2.629l-4.091-2.32a1.505,1.505,0,0,1-.736-1.012l-.942-4.612a1.513,1.513,0,0,0-2.5-.811l-3.468,3.178a1.5,1.5,0,0,1-1.191.384l-4.672-.53a1.512,1.512,0,0,0-1.547,2.128l1.945,4.284a1.5,1.5,0,0,1,0,1.251l-1.945,4.279a1.51,1.51,0,0,0,1.547,2.128l4.672-.53a1.52,1.52,0,0,1,1.191.389Z" transform="translate(-871.252 148.815)" fill="#fff"/>
      <path id="Path_4848" data-name="Path 4848" d="M945.588-21.05a1.513,1.513,0,0,1,2.5.811l.942,4.612a1.505,1.505,0,0,0,.736,1.012l4.091,2.32a1.511,1.511,0,0,1,0,2.629l-4.091,2.315a1.5,1.5,0,0,0-.736,1.017l-.942,4.607a1.51,1.51,0,0,1-2.5.811L942.12-4.089a1.52,1.52,0,0,0-1.191-.389l-4.672.53a1.511,1.511,0,0,1-1.547-2.128l1.945-4.279a1.5,1.5,0,0,0,0-1.251L934.71-15.89a1.512,1.512,0,0,1,1.547-2.128l4.672.53a1.5,1.5,0,0,0,1.191-.389Z" transform="translate(-871.252 36.006)" fill="#fff"/>
      <path id="Path_4849" data-name="Path 4849" d="M1007,5.178a1.5,1.5,0,0,0,0-2.915c-9.369-2.714-31.031-8.249-51.61-8.249-10.2,0-17.191,1.8-21.1,3.2a5.512,5.512,0,0,0-3.754,5.141V3.72h0V5.079a5.508,5.508,0,0,0,3.754,5.141c3.908,1.406,10.9,3.206,21.1,3.206C975.968,13.426,997.63,7.887,1007,5.178Z" transform="translate(-886.133 93.009)" fill="#fff"/>
      <g id="Group_10902" data-name="Group 10902" transform="translate(154.356 67.16)">
        <circle id="Ellipse_12" data-name="Ellipse 12" cx="15.541" cy="15.541" r="15.541" transform="translate(14.027 14.026)" fill="#fff"/>
        <path id="Path_4850" data-name="Path 4850" d="M1013.128,19.344a29.566,29.566,0,1,0-29.563,29.564A29.566,29.566,0,0,0,1013.128,19.344Zm-51.582,0a22.016,22.016,0,1,1,22.018,22.013A22.04,22.04,0,0,1,961.546,19.344Z" transform="translate(-953.996 10.224)" fill="#fff"/>
      </g>
      <path id="Path_4851" data-name="Path 4851" d="M982.025-6.506q-2.8-1.9-5.877-3.787a148.921,148.921,0,0,0-3.1,29.892,150.582,150.582,0,0,0,3.084,29.9q3.072-1.884,5.877-3.787A143.11,143.11,0,0,1,979.522,19.6,141.943,141.943,0,0,1,982.025-6.506Z" transform="translate(-729.412 77.13)" fill="#fff"/>
    </g>
  </g>
</svg>
